<svg xmlns="http://www.w3.org/2000/svg" viewBox="0 0 512 512"><path d="M496 264h-8V80c0-22.1-17.9-40-40-40H304V16c0-4.4-3.6-8-8-8h-80c-4.4 0-8 3.6-8 8v24H64c-22.1 0-40 17.9-40 40v184h-8c-4.4 0-8 3.6-8 8v184c0 26.5 21.5 48 48 48h400c26.5 0 48-21.5 48-48V272c0-4.4-3.6-8-8-8zM224 24h64v16h-64V24zM40 80c0-13.2 10.8-24 24-24h384c13.2 0 24 10.8 24 24v184h-16V80c0-4.4-3.6-8-8-8H64c-4.4 0-8 3.6-8 8v184H40V80zm207.2 92.4l-7.2-14.3V136h32v22.1l-7.2 14.3c-.6 1.1-.8 2.3-.8 3.6v48h-16v-48c0-1.2-.3-2.5-.8-3.6zM280 240v24h-48v-24h48zm-56 40h64v32h-64v-32zm72-16v-32c0-4.4-3.6-8-8-8h-8v-46.1l7.2-14.3c.6-1.1.8-2.3.8-3.6v-32c0-4.4-3.6-8-8-8h-48c-4.4 0-8 3.6-8 8v32c0 1.2.3 2.5.8 3.6l7.2 14.3V224h-8c-4.4 0-8 3.6-8 8v32h-48v-42.7c19.4-9.2 32-28.8 32-50.6 0-23.6-15-44.8-37.3-52.8-2.5-.9-5.2-.5-7.3 1s-3.4 3.9-3.4 6.5v41.9l-8 8-8-8v-41.9c0-2.6-1.3-5-3.4-6.5-2.1-1.5-4.8-1.9-7.3-1-22.3 8-37.3 29.2-37.3 52.9 0 21.7 12.6 41.4 32 50.6V264H72V88h368v176h-48v-42.7c19.4-9.2 32-28.8 32-50.6 0-23.6-15-44.8-37.3-52.8-2.4-.9-5.2-.5-7.3 1s-3.4 3.9-3.4 6.5v41.9l-8 8-8-8v-41.9c0-2.6-1.3-5-3.4-6.5-2.1-1.5-4.8-1.9-7.3-1C327 125.8 312 147 312 170.7c0 21.7 12.6 41.4 32 50.6V264h-48zM88 344h48v16H88v-16zm48-16H88v-48h48v48zm-5.3-119.5c-16-5.6-26.7-20.8-26.7-37.7 0-12.8 6.1-24.5 16-31.9v31.9c0 2.1.8 4.2 2.3 5.7l16 16c3.1 3.1 8.2 3.1 11.3 0l16-16c1.5-1.5 2.3-3.5 2.3-5.7v-31.9c9.9 7.4 16 19.2 16 31.9 0 16.9-10.7 32-26.7 37.7-3.2 1.1-5.3 4.2-5.3 7.5v48h-16v-48c.1-3.4-2-6.4-5.2-7.5zm224 0c-16-5.6-26.7-20.8-26.7-37.7 0-12.8 6.1-24.5 16-31.9v31.9c0 2.1.8 4.2 2.3 5.7l16 16c3.1 3.1 8.2 3.1 11.3 0l16-16c1.5-1.5 2.3-3.5 2.3-5.7v-31.9c9.9 7.4 16 19.2 16 31.9 0 16.9-10.7 32-26.7 37.7-3.2 1.1-5.3 4.2-5.3 7.5v48h-16v-48c.1-3.4-2-6.4-5.2-7.5zM376 344h48v16h-48v-16zm48-16h-48v-48h48v48zm64 128c0 17.6-14.4 32-32 32H56c-17.6 0-32-14.4-32-32V280h48v88c0 4.4 3.6 8 8 8h64c4.4 0 8-3.6 8-8v-88h56v40c0 4.4 3.6 8 8 8h80c4.4 0 8-3.6 8-8v-40h56v88c0 4.4 3.6 8 8 8h64c4.4 0 8-3.6 8-8v-88h48v176z" fill="#fff"/></svg>