<svg version="1.1" id="Capa_1" xmlns="http://www.w3.org/2000/svg" x="0" y="0" viewBox="0 0 497.2 497.2" xml:space="preserve"><style>.st0{fill:#fff}</style><path class="st0" d="M466.3 240c-33.4 0-64.5-16.6-83-44.4l-6.7-10-6.7 10c-18.6 27.8-49.6 44.4-83 44.4h-30.3v128.3c0 31 14 60.2 37.3 79.7H128.6v-32h104V272h-168v64h-48V16h352v144h16V0H.6v347.3L117.3 464h201.2l58.1 33.2 67.6-38.6c32.3-18.5 52.4-53.1 52.4-90.3V240h-30.3zM112.6 436.7L27.9 352h84.7v84.7zM80.6 336v-48h136v112h-88v-64h-48zm400 32.3c0 31.5-17 60.8-44.3 76.4l-59.7 34.1-59.7-34.1c-27.3-15.6-44.3-44.9-44.3-76.4V256h14.3c35 0 67.8-15.7 89.7-42.5 21.9 26.8 54.6 42.5 89.7 42.5h14.3v112.3z"/><path class="st0" d="M448.6 368.3c0 20-10.8 38.7-28.2 48.6l7.9 13.9c22.4-12.8 36.3-36.7 36.3-62.5V320h-16v48.3zM336.6 32h-288v48h288V32zm-16 32h-256V48h256v16zM442.9 274.3L336.6 380.7l-26.3-26.4-11.4 11.4 37.7 37.6 117.7-117.6zM96.6 304h104v16h-104zM144.6 336h56v16h-56zM144.6 368h56v16h-56zM48.6 112h256v16h-256zM48.6 144h256v16h-256zM48.6 176h256v16h-256zM48.6 208h152v16h-152zM48.6 240h152v16h-152zM320.6 112h16v16h-16zM320.6 144h16v16h-16zM320.6 176h16v16h-16zM216.6 208h16v16h-16zM216.6 240h16v16h-16z"/></svg>