<svg xmlns="http://www.w3.org/2000/svg" viewBox="0 0 512 512"><linearGradient id="a" gradientUnits="userSpaceOnUse" x1="56.001" y1="258.649" x2="456.001" y2="258.649"><stop offset="0" stop-color="#d5132a"/><stop offset="1" stop-color="#e9601c"/></linearGradient><path d="M303 61.6c-5.4-1.3-10.8 2-12.1 7.4-1.3 5.4 2 10.8 7.4 12.1C379.4 100.6 436 172.5 436 256c0 99.3-80.7 180-180 180S76 355.3 76 256c0-83.5 56.6-155.4 137.7-175 5.4-1.3 8.7-6.7 7.4-12.1-1.3-5.4-6.7-8.7-12.1-7.4-42.9 10.3-81.7 35.1-109.4 69.8C71.1 167.1 56 210.2 56 256c0 110.3 89.7 200 200 200s200-89.7 200-200c0-45.8-15.1-88.9-43.6-124.6-27.6-34.7-66.5-59.5-109.4-69.8z" fill="url(#a)"/><linearGradient id="b" gradientUnits="userSpaceOnUse" x1="-.001" y1="256.002" x2="512.002" y2="256.002"><stop offset="0" stop-color="#d5132a"/><stop offset="1" stop-color="#e9601c"/></linearGradient><path d="M506 231.9l-11.7-21.8 2-27c1.9-17.3-5-34.2-18.5-45.2L458.4 122l-7.6-23c-4.3-17.6-17.6-31.7-35-37l-24-7.2-18.4-21.2c-10.9-12.8-27.3-19.4-44-17.8l-24.9 2.5L280.1 6c-15.1-8-33-8-48.1 0l-21.8 11.7-27-2c-17.3-1.9-34.2 5-45.2 18.5l-15.9 19.4-23 7.6c-17.6 4.3-31.7 17.6-37 35l-7.2 24-21.2 18.4c-12.8 10.9-19.4 27.3-17.8 44l2.5 24.9L6 231.9c-8 15.1-8 33 0 48.1l11.7 21.8-2 27c-1.9 17.3 5 34.2 18.5 45.2l19.5 16 7.6 23c4.3 17.6 17.6 31.7 35 37l24 7.2 18.4 21.2c10.9 12.8 27.3 19.4 44 17.8l24.9-2.5 24.5 12.3c7.5 4 15.8 6 24.1 6s16.5-2 24.1-6l21.8-11.7 27 2c17.3 1.9 34.2-5 45.2-18.5l15.9-19.4 23-7.6c17.6-4.3 31.7-17.6 37-35l7.2-24 21.2-18.4c12.8-10.9 19.4-27.3 17.8-44l-2.5-24.9 12.3-24.5c7.8-15 7.8-33-.2-48.1zm-17.7 38.8c0 .1-.1.2-.1.2l-13.6 27.2c-.8 1.7-1.2 3.6-1 5.5l2.8 27.8c1 10.1-3.1 20.2-10.9 26.8L442 378.5c-1.4 1.2-2.5 2.9-3 4.7l-8.1 26.7c-3.2 10.7-12 18.9-22.8 21.4-.3.1-.6.2-.9.2l-26.2 8.7c-1.8.6-3.4 1.7-4.6 3.2l-17.7 21.7c-6.7 8.2-17.1 12.4-27.7 11.3h-.4l-30.1-2.2c-1.9-.1-3.8.3-5.4 1.2l-24.4 13.1c-9.2 4.9-20.2 4.9-29.4-.1-.1 0-.2-.1-.2-.1l-27.2-13.6c-1.4-.7-2.9-1.1-4.5-1.1h-1l-27.8 2.8c-10.1 1-20.2-3.1-26.8-10.9L133.5 442c-1.2-1.4-2.9-2.5-4.7-3l-26.7-8.1c-10.7-3.2-18.9-12-21.4-22.8-.1-.3-.2-.6-.2-.9L71.8 381c-.6-1.8-1.7-3.4-3.2-4.6l-21.7-17.7c-8.2-6.7-12.4-17.1-11.3-27.7v-.4l2.2-30.1c.1-1.9-.3-3.8-1.2-5.4l-13.1-24.4c-4.9-9.2-4.9-20.2.1-29.4 0-.1.1-.2.1-.2l13.6-27.2c.8-1.7 1.2-3.6 1-5.5l-2.8-27.8c-1-10.1 3.1-20.2 10.9-26.8l23.5-20.3c1.4-1.2 2.5-2.9 3-4.7l8.1-26.7c3.2-10.7 12-18.9 22.8-21.4.3-.1.6-.2.9-.2l26.2-8.7c1.8-.6 3.4-1.7 4.6-3.2l17.7-21.7c6.7-8.2 17.1-12.4 27.7-11.2h.4l30.1 2.2c1.9.1 3.8-.3 5.4-1.2l24.4-13.1c9.2-4.9 20.2-4.9 29.4.1.1 0 .2.1.2.1L298 37.4c1.7.8 3.6 1.2 5.5 1l27.8-2.8c10.1-1 20.2 3.1 26.8 10.9L378.4 70c1.2 1.4 2.9 2.5 4.7 3l26.7 8.1c10.7 3.2 18.9 12 21.4 22.8.1.3.2.6.2.9l8.7 26.2c.6 1.8 1.7 3.4 3.2 4.6l21.7 17.7c8.2 6.7 12.4 17.1 11.2 27.7v.4l-2.2 30.1c-.1 1.9.3 3.8 1.2 5.4l13.1 24.4c4.9 9.3 4.9 20.2 0 29.4z" fill="url(#b)"/><linearGradient id="c" gradientUnits="userSpaceOnUse" x1="140.736" y1="236.832" x2="408.82" y2="236.832"><stop offset="0" stop-color="#d5132a"/><stop offset="1" stop-color="#e9601c"/></linearGradient><path d="M212.6 201.5c-1.6-3.4-5-5.7-9-5.7h-52.8c-5.5 0-10 4.5-10 10v151.4c0 5.5 4.5 10 10 10h52.8c4.1 0 7.7-2.5 9.2-6.1 7.6 1.1 15.5 3.2 23.7 5.5 12.3 3.4 25 6.9 38.2 6.9h57.7c17.8 0 32.3-9.5 38.7-25.3 3.1-7.7 3.6-15.7 1.8-22.4 3.3-3 6.1-6.7 8.2-11 4.3-8.8 5.2-18.7 2.7-27 4.5-4.4 7.9-10.2 9.7-17 1.7-6.4 1.6-12.7.2-18.2 9-5.3 15.1-14.9 15.1-25.8 0-8.5-3.3-16.4-9.3-22.1-5.8-5.5-13.5-8.5-21.7-8.5h-81.4c-6.2-7.8-8.1-18.3-4.6-26.8 7.2-17.4 6.8-32.1-1.4-47.7-6.1-11.6-22.5-23.1-36.3-21.2-8.3 1.2-14.4 7.1-16.1 15.8-.5 2.6-.7 5.3-.8 8.5-.4 7.9-1 18.7-7.8 31.7-4.6 8.8-6.2 17.9-7.5 26-2 11.4-3 16.9-9.3 19zm-51.9 14.3h32.8v131.4h-32.8V215.8zm80.8-30.1c1.2-6.9 2.4-14 5.5-20 8.8-16.9 9.6-31.3 10-39.9.1-2.3.2-4.5.5-5.6 3.5 0 12 4.7 15.2 10.7 5.5 10.4 5.7 18.7.7 30.7-4.5 10.8-4.2 23.4.3 34.5-4.9.7-8.6 4.8-8.6 9.9 0 5.5 4.5 10 10 10h102.7c3 0 5.9 1.1 7.9 3 1.4 1.4 3.1 3.8 3.1 7.6 0 5.4-4.9 10-10.7 10.1l-25.7.6c-5.5.1-9.9 4.7-9.8 10.2.1 5.4 4.6 9.8 10 9.8h.2l21.4-.5c.7 2 1.1 5.8-.4 10.1-1.3 3.7-4.6 9.9-13.1 9.9-5.5 0-10 4.5-10 10s4.5 10 10 10c1.5 0 3-.1 4.5-.3.1 2.8-.5 6.1-2 9.3-1.8 3.8-5.5 8.2-12.3 8.2-5.5 0-10 4.5-10 10s4.5 10 10 10c1 0 2.1 0 3.1-.1 0 1.9-.4 4.3-1.5 6.9-1.6 3.8-6.7 12.6-20 12.6h-57.7c-10.5 0-21.4-3-32.9-6.2-9.2-2.5-18.6-5.1-28.2-6.3V221.8c22.4-4.1 25.5-22.4 27.8-36.1z" fill="url(#c)"/><linearGradient id="d" gradientUnits="userSpaceOnUse" x1="245.999" y1="66.001" x2="266.002" y2="66.001"><stop offset="0" stop-color="#d5132a"/><stop offset="1" stop-color="#e9601c"/></linearGradient><path d="M256 76c5.5 0 10-4.5 10-10s-4.5-10-10-10-10 4.5-10 10 4.5 10 10 10z" fill="url(#d)"/></svg>