<svg xmlns="http://www.w3.org/2000/svg" viewBox="0 0 512 512"><linearGradient id="a" gradientUnits="userSpaceOnUse" x1="225.998" y1="334.024" x2="286" y2="334.024"><stop offset="0" stop-color="#d5132a"/><stop offset="1" stop-color="#e9601c"/></linearGradient><path d="M271 322.7c-4.6 2.6-9.7 4-15 4s-10.4-1.4-15-4c-4.8-2.8-10.9-1.1-13.7 3.7-2.8 4.8-1.1 10.9 3.7 13.7 7.6 4.4 16.2 6.7 25 6.7s17.4-2.3 25-6.7c4.8-2.8 6.4-8.9 3.7-13.7-2.8-4.8-8.9-6.5-13.7-3.7z" fill="url(#a)"/><linearGradient id="b" gradientUnits="userSpaceOnUse" x1="28.966" y1="256" x2="483.031" y2="256"><stop offset="0" stop-color="#d5132a"/><stop offset="1" stop-color="#e9601c"/></linearGradient><path d="M473 492h-7.3c-3.3-70-41.4-133.6-101.8-169.9 12.3-18.4 19.9-39.7 21.6-62.1h.4c22.1 0 40-17.9 40-40 0-18.6-12.8-34.3-30-38.7V150c0-31.7-10.9-62.8-30.7-87.5-17.8-22.2-42.2-38.6-69.3-46.7V10c0-5.5-4.5-10-10-10h-60c-5.5 0-10 4.5-10 10v5.8c-27.1 8.1-51.5 24.5-69.3 46.7C126.9 87.2 116 118.3 116 150V181.3c-17.2 4.5-30 20.1-30 38.7 0 22.1 17.9 40 40 40h.4c1.8 22.4 9.3 43.7 21.6 62.1C87.7 358.4 49.6 422 46.2 492H39c-5.5 0-10 4.5-10 10s4.5 10 10 10H473.2c5.5 0 10-4.5 10-10-.2-5.5-4.6-10-10.2-10zm-87-292c11 0 20 9 20 20s-9 20-20 20v-40zm-260 40c-11 0-20-9-20-20s9-20 20-20v40zm-20 252H66.3c2.1-39.2 16.2-76.2 39.7-106.4V492zM296 36.8c47.7 16.7 80 61.6 80 113.2v2.9c-19.6-9.8-50.6-15.1-80-17.5V36.8zM236 20h40v114.2c-7-.3-13.8-.4-20-.4s-13 .1-20 .4V20zM136 150c0-51.6 32.3-96.4 80-113.2v98.5c-29.4 2.4-60.4 7.6-80 17.5V150zm0 27.3c.9-2.1 8.7-9 34.2-15 23.3-5.5 53.8-8.6 85.8-8.6s62.5 3 85.8 8.6c25.5 6 33.3 12.9 34.2 15v2.7H136v-2.7zm10 72.7v-50h220v50c0 32.8-15 63.9-40 84.7v-24.8c0-16.4-13.4-29.8-29.8-29.8h-80.3c-16.4 0-29.8 13.4-29.8 29.8v24.8C161 313.9 146 282.8 146 250zm100 242H126V363.7c10.4-9.7 21.9-18.4 34.5-25.7 7.7 8.3 16.4 15.7 26.2 21.9 4.3 30.7 28.6 55 59.3 59.4V492zm10-92c-27.6 0-50-22.4-50-50v-40.2c0-5.4 4.4-9.8 9.8-9.8h80.3c5.4 0 9.8 4.4 9.8 9.8V350c.1 27.6-22.3 50-49.9 50zm130 92H266v-72.7c30.7-4.4 55-28.7 59.3-59.4 9.8-6.2 18.5-13.6 26.2-21.9 12.6 7.4 24.1 16 34.5 25.7V492zm20 0V385.6c23.5 30.2 37.7 67.2 39.7 106.4H406z" fill="url(#b)"/><linearGradient id="c" gradientUnits="userSpaceOnUse" x1=".001" y1="501.996" x2="20.234" y2="501.996"><stop offset="0" stop-color="#d5132a"/><stop offset="1" stop-color="#e9601c"/></linearGradient><path d="M10.2 492H10c-5.5 0-10 4.5-10 10s4.5 10 10 10h.2c5.5 0 10-4.5 10-10s-4.4-10-10-10z" fill="url(#c)"/><linearGradient id="d" gradientUnits="userSpaceOnUse" x1="491.763" y1="501.996" x2="511.999" y2="501.996"><stop offset="0" stop-color="#d5132a"/><stop offset="1" stop-color="#e9601c"/></linearGradient><path d="M502 492h-.2c-5.5 0-10 4.5-10 10s4.5 10 10 10h.2c5.5 0 10-4.5 10-10s-4.5-10-10-10z" fill="url(#d)"/><linearGradient id="e" gradientUnits="userSpaceOnUse" x1="145.999" y1="461.998" x2="196.032" y2="461.998"><stop offset="0" stop-color="#d5132a"/><stop offset="1" stop-color="#e9601c"/></linearGradient><path d="M186 452h-30c-5.5 0-10 4.5-10 10s4.5 10 10 10h30c5.5 0 10-4.5 10-10s-4.4-10-10-10z" fill="url(#e)"/><linearGradient id="f" gradientUnits="userSpaceOnUse" x1="205.119" y1="461.998" x2="225.593" y2="461.998"><stop offset="0" stop-color="#d5132a"/><stop offset="1" stop-color="#e9601c"/></linearGradient><path d="M215.1 472h.5c5.5 0 10-4.5 10-10s-4.5-10-10-10h-.5c-5.5 0-10 4.5-10 10s4.5 10 10 10z" fill="url(#f)"/><linearGradient id="g" gradientUnits="userSpaceOnUse" x1="275.084" y1="461.998" x2="295.556" y2="461.998"><stop offset="0" stop-color="#d5132a"/><stop offset="1" stop-color="#e9601c"/></linearGradient><path d="M285.6 452h-.5c-5.5 0-10 4.5-10 10s4.5 10 10 10h.5c5.5 0 10-4.5 10-10s-4.5-10-10-10z" fill="url(#g)"/><linearGradient id="h" gradientUnits="userSpaceOnUse" x1="175.999" y1="240.264" x2="235.999" y2="240.264"><stop offset="0" stop-color="#d5132a"/><stop offset="1" stop-color="#e9601c"/></linearGradient><path d="M196 245.4c.1 5.4 4.5 9.8 10 9.8s9.9-4.4 10-9.8h10c5.5 0 10-4.5 10-10s-4.5-10-10-10h-40c-5.5 0-10 4.5-10 10s4.5 10 10 10h10z" fill="url(#h)"/><linearGradient id="i" gradientUnits="userSpaceOnUse" x1="276" y1="240.264" x2="335.999" y2="240.264"><stop offset="0" stop-color="#d5132a"/><stop offset="1" stop-color="#e9601c"/></linearGradient><path d="M286 245.4h10c.1 5.4 4.5 9.8 10 9.8s9.9-4.4 10-9.8h10c5.5 0 10-4.5 10-10s-4.5-10-10-10h-40c-5.5 0-10 4.5-10 10s4.5 10 10 10z" fill="url(#i)"/></svg>