<svg xmlns="http://www.w3.org/2000/svg" viewBox="0 0 512 512"><linearGradient id="a" gradientUnits="userSpaceOnUse" x1=".002" y1="213.333" x2="512.002" y2="213.333"><stop offset="0" stop-color="#d5132a"/><stop offset="1" stop-color="#e9601c"/></linearGradient><path d="M480 0H32C14.3 0 0 14.3 0 32v362.7c0 17.7 14.3 32 32 32h256v-21.3H32c-5.9 0-10.7-4.8-10.7-10.7V32c0-5.9 4.8-10.7 10.7-10.7h448c5.9 0 10.7 4.8 10.7 10.7v362.7c0 5.9-4.8 10.7-10.7 10.7h-21.3v21.3H480c17.7 0 32-14.3 32-32V32c0-17.7-14.3-32-32-32z" fill="url(#a)"/><linearGradient id="b" gradientUnits="userSpaceOnUse" x1="53.335" y1="213.334" x2="458.669" y2="213.334"><stop offset="0" stop-color="#d5132a"/><stop offset="1" stop-color="#e9601c"/></linearGradient><path d="M106.7 362.7c0 5.9 4.8 10.7 10.7 10.7H256V352H127.1c-4.6-26.8-25.6-47.9-52.4-52.4V127.1c26.8-4.6 47.9-25.6 52.4-52.4h257.8c4.6 26.8 25.6 47.9 52.4 52.4v86.2h21.3v-96c0-5.9-4.8-10.7-10.7-10.7-23.6 0-42.7-19.1-42.7-42.7 0-5.9-4.8-10.7-10.7-10.7H117.3c-5.9 0-10.7 4.8-10.7 10.7 0 23.6-19.1 42.7-42.7 42.7-5.9 0-10.7 4.8-10.7 10.7v192c0 5.9 4.8 10.7 10.7 10.7 23.7 0 42.8 19.1 42.8 42.7z" fill="url(#b)"/><linearGradient id="c" gradientUnits="userSpaceOnUse" x1="277.336" y1="368.002" x2="469.336" y2="368.002"><stop offset="0" stop-color="#d5132a"/><stop offset="1" stop-color="#e9601c"/></linearGradient><path d="M469.3 320c0-53-43-96-96-96s-96 43-96 96c0 28.4 12.4 54 32 71.5v109.8c0 2.4.8 4.8 2.3 6.7 3.7 4.6 10.4 5.3 15 1.7l46.7-37.3 46.7 37.3c1.9 1.5 4.2 2.3 6.7 2.3 5.9 0 10.7-4.8 10.7-10.7V391.5c19.5-17.6 31.9-43.1 31.9-71.5zm-170.6 0c0-41.2 33.4-74.7 74.7-74.7 41.2 0 74.6 33.4 74.7 74.7 0 41.2-33.4 74.7-74.7 74.7s-74.7-33.5-74.7-74.7zM416 479.1l-36-28.8c-3.9-3.1-9.4-3.1-13.3 0l-36 28.8V406c12.9 6.4 27.3 10 42.7 10 15.3 0 29.8-3.6 42.7-10v73.1z" fill="url(#c)"/><linearGradient id="d" gradientUnits="userSpaceOnUse" x1="138.669" y1="138.667" x2="373.336" y2="138.667"><stop offset="0" stop-color="#d5132a"/><stop offset="1" stop-color="#e9601c"/></linearGradient><path d="M373.3 160v-42.7c0-5.9-4.8-10.7-10.7-10.7H149.3c-5.9 0-10.7 4.8-10.7 10.7V160c0 5.9 4.8 10.7 10.7 10.7h213.3c6 0 10.7-4.8 10.7-10.7zM352 149.3H160V128h192v21.3z" fill="url(#d)"/><linearGradient id="e" gradientUnits="userSpaceOnUse" x1="128.002" y1="213.333" x2="149.335" y2="213.333"><stop offset="0" stop-color="#d5132a"/><stop offset="1" stop-color="#e9601c"/></linearGradient><path fill="url(#e)" d="M128 202.7h21.3V224H128z"/><linearGradient id="f" gradientUnits="userSpaceOnUse" x1="170.669" y1="213.333" x2="192.002" y2="213.333"><stop offset="0" stop-color="#d5132a"/><stop offset="1" stop-color="#e9601c"/></linearGradient><path fill="url(#f)" d="M170.7 202.7H192V224h-21.3z"/><linearGradient id="g" gradientUnits="userSpaceOnUse" x1="128.002" y1="256" x2="256.002" y2="256"><stop offset="0" stop-color="#d5132a"/><stop offset="1" stop-color="#e9601c"/></linearGradient><path fill="url(#g)" d="M128 245.3h128v21.3H128z"/><linearGradient id="h" gradientUnits="userSpaceOnUse" x1="320.003" y1="320" x2="426.669" y2="320"><stop offset="0" stop-color="#d5132a"/><stop offset="1" stop-color="#e9601c"/></linearGradient><path d="M373.3 373.3c29.4 0 53.3-23.9 53.3-53.3 0-29.5-23.9-53.3-53.3-53.3-29.5 0-53.3 23.9-53.3 53.3s23.9 53.3 53.3 53.3zm0-85.3c17.7 0 32 14.3 32 32s-14.3 32-32 32-32-14.3-32-32 14.4-32 32-32z" fill="url(#h)"/><linearGradient id="i" gradientUnits="userSpaceOnUse" x1="53.336" y1="362.666" x2="74.669" y2="362.666"><stop offset="0" stop-color="#d5132a"/><stop offset="1" stop-color="#e9601c"/></linearGradient><path fill="url(#i)" d="M53.3 352h21.3v21.3H53.3z"/><linearGradient id="j" gradientUnits="userSpaceOnUse" x1="437.336" y1="63.999" x2="458.669" y2="63.999"><stop offset="0" stop-color="#d5132a"/><stop offset="1" stop-color="#e9601c"/></linearGradient><path fill="url(#j)" d="M437.3 53.3h21.3v21.3h-21.3z"/><linearGradient id="k" gradientUnits="userSpaceOnUse" x1="53.336" y1="63.999" x2="74.669" y2="63.999"><stop offset="0" stop-color="#d5132a"/><stop offset="1" stop-color="#e9601c"/></linearGradient><path fill="url(#k)" d="M53.3 53.3h21.3v21.3H53.3z"/></svg>