<svg xmlns="http://www.w3.org/2000/svg" viewBox="0 0 496 496"><linearGradient id="a" gradientUnits="userSpaceOnUse" x1="192" y1="64.539" x2="384" y2="64.539"><stop offset="0" stop-color="#d5132a"/><stop offset="1" stop-color="#e9601c"/></linearGradient><path d="M248 129.1L306.9 80H384V0H192v80h56v49.1zM208 64V16h160v48h-66.9L264 94.9V64h-56z" fill="url(#a)"/><linearGradient id="b" gradientUnits="userSpaceOnUse" x1="224" y1="40" x2="240" y2="40"><stop offset="0" stop-color="#d5132a"/><stop offset="1" stop-color="#e9601c"/></linearGradient><path d="M224 32h16v16h-16V32z" fill="url(#b)"/><linearGradient id="c" gradientUnits="userSpaceOnUse" x1="256" y1="40" x2="320" y2="40"><stop offset="0" stop-color="#d5132a"/><stop offset="1" stop-color="#e9601c"/></linearGradient><path d="M256 32h64v16h-64V32z" fill="url(#c)"/><linearGradient id="d" gradientUnits="userSpaceOnUse" x1="336" y1="40" x2="352" y2="40"><stop offset="0" stop-color="#d5132a"/><stop offset="1" stop-color="#e9601c"/></linearGradient><path d="M336 32h16v16h-16V32z" fill="url(#d)"/><linearGradient id="e" gradientUnits="userSpaceOnUse" x1="0" y1="308" x2="496" y2="308"><stop offset="0" stop-color="#d5132a"/><stop offset="1" stop-color="#e9601c"/></linearGradient><path d="M407.2 480l-6.5-64.8C427.5 411 448 387.9 448 360V256h-32v-11.1c0-10.9-6-20.6-15.6-25.6C410 210.5 416 198 416 184v-16c0-26.5-21.5-48-48-48s-48 21.5-48 48v16c0 20.7 13.2 38.3 31.6 45.1L308.7 272h-44.9c-.9-13.3-10.1-25-23-28.7L208 234v-14.3c9.8-8.8 16-21.5 16-35.7v-16c0-26.5-21.5-48-48-48s-48 21.5-48 48v16c0 14.2 6.2 26.9 16 35.7V234l-32.8 9.4C97.5 247.2 88 259.9 88 274.1V304H56v48h16v128H0v16h496v-16h-88.8zM336 352v-36.7l56.7-56.7c4.1-4.1 6.5-9.6 7.1-15.3.1.6.2 1.1.2 1.7v99c0 13.2-10.8 24-24 24h-64v-16h24zm-24 64h40.8l6.4 64H312v-64zm56.8 0h15.9l6.4 64h-15.9l-6.4-64zm47.2-72v-72h16v88c0 22.1-17.9 40-40 40h-80v-16h64c22.1 0 40-17.9 40-40zm-80-160v-16c0-17.6 14.4-32 32-32s32 14.4 32 32v16c0 17.6-14.4 32-32 32s-32-14.4-32-32zm-20.7 104l53.4-53.4c1.7-1.7 4-2.6 6.3-2.6 4.9 0 9 4 9 9 0 2.4-1 4.7-2.6 6.3L324.7 304H240c-4.4 0-8-3.6-8-8s3.6-8 8-8h75.3zM144 168c0-17.6 14.4-32 32-32s32 14.4 32 32v16c0 17.6-14.4 32-32 32s-32-14.4-32-32v-16zm32 64c5.6 0 11-1 16-2.8v8.6c-2 3.1-7.5 10.2-16 10.2s-14-7.1-16-10.2v-8.6c5 1.8 10.4 2.8 16 2.8zm-72 42.1c0-7.1 4.8-13.4 11.6-15.4l33-9.4c4.6 6 13.7 14.7 27.4 14.7s22.8-8.6 27.4-14.7l33 9.4c6.1 1.8 10.4 7.1 11.3 13.3H240c-13.2 0-24 10.8-24 24 0 2.8.6 5.5 1.5 8H104v-29.9zM72 320h248v16H72v-16zm16 64h24v-16H88v-16h208v16H128v16h168v96h-19.1l-16-32H123.1l-16 32H88v-96zm171.1 96H124.9l8-16H251l8.1 16z" fill="url(#e)"/></svg>