<svg xmlns="http://www.w3.org/2000/svg" viewBox="0 0 393 393"><linearGradient id="a" gradientUnits="userSpaceOnUse" x1="38.2" y1="196.501" x2="355.368" y2="196.501"><stop offset="0" stop-color="#d5132a"/><stop offset="1" stop-color="#e9601c"/></linearGradient><path d="M229.8 205c25.5-17.9 43.3-44.4 50.1-74.8 3.2.5 6.5.8 9.9.8 36.1 0 65.5-29.4 65.5-65.5C355.4 29.4 326 0 289.9 0c-29 0-53.6 18.9-62.2 45h-163c-11.3 0-20.5 9.2-20.5 20.5S53.4 86 64.7 86h20.8v17.3c0 18.4 4.1 36.3 11.7 52.5l-56.5 48c-2.9 2.4-3.2 6.7-.8 9.6 1.4 1.6 3.3 2.4 5.2 2.4 1.6 0 3.1-.5 4.4-1.6l54.3-46.1c3.5 5.8 7.5 11.4 12 16.6l-27 22.9c-2.9 2.4-3.2 6.7-.8 9.6 1.3 1.6 3.3 2.4 5.2 2.4 1.6 0 3.1-.5 4.4-1.6l27.7-23.5c3.9 3.7 8.1 7.1 12.5 10.3l1.1.8c4.9 3.5 7.7 9 7.7 15s-2.9 11.5-7.8 15C105.5 259 85.6 297.3 85.6 338v13.9H64.7c-11.3 0-20.5 9.2-20.5 20.5s9.2 20.5 20.5 20.5h238.8c11.3 0 20.5-9.2 20.5-20.5s-9.2-20.5-20.5-20.5H283v-14.6c0-40.3-19.5-78.3-52.2-101.7l-1.1-.8c-4.9-3.5-7.7-9-7.7-15 0-5.9 2.9-11.4 7.8-14.8zm60.1-191.4c28.6 0 51.9 23.3 51.9 51.9s-23.3 51.9-51.9 51.9c-28.6 0-51.9-23.3-51.9-51.9s23.3-51.9 51.9-51.9zm-232 51.9c0-3.8 3.1-6.8 6.8-6.8h160c-.2 2.2-.4 4.5-.4 6.8s.1 4.6.4 6.8h-160c-3.8 0-6.8-3-6.8-6.8zm252.4 307c0 3.8-3.1 6.8-6.8 6.8H64.7c-3.8 0-6.8-3.1-6.8-6.8 0-3.8 3.1-6.8 6.8-6.8h238.8c3.8 0 6.8 3.1 6.8 6.8zM221.7 246l1.1.8c29.2 20.9 46.6 54.7 46.6 90.6V352H99.1v-13.9c0-36.3 17.7-70.4 47.4-91.2 8.6-6 13.6-15.5 13.6-26.1.1-10.5-4.8-20.1-13.4-26.2l-1.1-.8c-3.5-2.5-6.9-5.2-10-8.1l8.7-7.4c2.9-2.4 3.2-6.7.8-9.6-2.4-2.9-6.8-3.2-9.6-.8l-9.4 8c-4.5-5.2-8.4-10.8-11.9-16.8l9.7-8.2c2.9-2.4 3.2-6.7.8-9.6-2.4-2.9-6.7-3.2-9.6-.8l-7.1 6.1c-5.7-13.6-8.8-28.3-8.8-43.3V86h128.5c6.2 18.8 20.7 33.8 39.1 40.8 0 .1-.1.2-.2.4-6.1 27.1-22 50.8-44.7 66.7-8.6 6-13.6 15.5-13.6 26s4.9 20 13.4 26.1z" fill="url(#a)"/><linearGradient id="b" gradientUnits="userSpaceOnUse" x1="142.031" y1="114.19" x2="171.493" y2="114.19"><stop offset="0" stop-color="#d5132a"/><stop offset="1" stop-color="#e9601c"/></linearGradient><path d="M160.3 102.3l-15.8 13.4c-2.9 2.4-3.2 6.7-.8 9.6 1.4 1.6 3.3 2.4 5.2 2.4 1.6 0 3.1-.5 4.4-1.6l15.8-13.4c2.9-2.4 3.2-6.7.8-9.6-2.5-2.9-6.8-3.3-9.6-.8z" fill="url(#b)"/><linearGradient id="c" gradientUnits="userSpaceOnUse" x1="262.572" y1="70.735" x2="322.692" y2="70.735"><stop offset="0" stop-color="#d5132a"/><stop offset="1" stop-color="#e9601c"/></linearGradient><path d="M279.4 91.5c1.3 1.3 3 1.9 4.7 1.9 1.7 0 3.5-.7 4.8-2l31.7-31.7c2.7-2.7 2.7-7 0-9.6-2.7-2.7-7-2.7-9.6 0l-27 27-10-9.6c-2.7-2.6-7-2.5-9.6.2-2.6 2.7-2.5 7 .2 9.6l14.8 14.2z" fill="url(#c)"/></svg>