<svg data-name="Layer 3" xmlns="http://www.w3.org/2000/svg" viewBox="0 0 566.65 566.93"><path fill="red" d="M54.17 360h48v48h-48zM38.17 426.08V360h-28a281.43 281.43 0 0028 66.08zM54.17 424h48v16h-48zM4.95 337.88zM8.49 353.78c.08.3.15.61.23.91-.06-.3-.13-.61-.23-.91zM118.17 344v-48a8 8 0 015.33-7.55 39.91 39.91 0 0010.67-69.6v31.94a8 8 0 01-2.34 5.66l-16 16a8 8 0 01-11.32 0l-16-16a8 8 0 01-2.34-5.66v-31.94a39.91 39.91 0 0010.67 69.6 8 8 0 015.33 7.55v48zM51.94 447.46l.12.16zM44.35 436.21v.06zM6.71 346.26zM190.17 104h64v16h-64zM342.17 344v-48a8 8 0 015.33-7.55 39.91 39.91 0 0010.67-69.6v31.94a8 8 0 01-2.34 5.66l-16 16a8 8 0 01-11.32 0l-16-16a8 8 0 01-2.34-5.66v-31.94a39.91 39.91 0 0010.67 69.6 8 8 0 015.33 7.55v48zM342.17 424h48v16h-48z"/><path d="M46.01 128.19a282 282 0 00-39.84 94.95v120.65l.05.21h16V172.73q4.5-10.6 9.84-20.73h382.11a8 8 0 018 8v184h16V160a24 24 0 00-24-24H41.06q2.43-3.94 4.95-7.81zM190.17 360h64v32h-64z" fill="red"/><path d="M230.17 304v-48a8.08 8.08 0 01.84-3.58l7.16-14.31V216h-32v22.11l7.16 14.31a8.08 8.08 0 01.84 3.58v48z" fill="red"/><path d="M406.17 168h-368v176h48v-42.66A55.93 55.93 0 0191.49 198a8 8 0 0110.67 7.53v41.9l8 8 8-8v-41.9a8 8 0 0110.68-7.53 55.93 55.93 0 015.33 103.3V344h48v-32a8 8 0 018-8h8v-46.11l-7.16-14.32a8 8 0 01-.84-3.57v-32a8 8 0 018-8h48a8 8 0 018 8v32a8 8 0 01-.84 3.57l-7.16 14.32V304h8a8 8 0 018 8v32h48v-42.66A55.93 55.93 0 01315.49 198a8 8 0 0110.67 7.53v41.9l8 8 8-8v-41.9a8 8 0 0110.68-7.53 55.93 55.93 0 015.33 103.3V344h48zM342.17 360h48v48h-48z" fill="red"/><path fill="red" d="M198.17 320h48v24h-48zM4.64 230.66q-.61 3.34-1.15 6.65.53-3.31 1.15-6.65zM6.15 223.25q-.75 3.45-1.41 6.93.66-3.48 1.41-6.93zM454.17 360h-48v88a8 8 0 01-8 8h-64a8 8 0 01-8-8v-88h-56v40a8 8 0 01-8 8h-80a8 8 0 01-8-8v-40h-56v88a8 8 0 01-8 8H58.28a283.45 283.45 0 00395.89 53.55zM3.33 238.18zM2.22 245.77q-.37 2.79-.69 5.6c.22-1.87.44-3.74.69-5.6z"/><path d="M283.18 0C184.2 0 97.09 50.74 46.39 127.61q2.55-3.85 5.2-7.61h122.58V96a8 8 0 018-8h80a8 8 0 018 8v24h144a40 40 0 0140 40v184h8a8 8 0 018 8v144.49a282.76 282.76 0 0096.47-213C566.64 126.91 439.73 0 283.18 0zM464.13 501.66l-1 .81zM469.17 497.37zM2.56 323.65zM.4 303c.06.9.11 1.8.18 2.7-.09-.88-.09-1.78-.18-2.7zM1.66 316.64c.16 1.36.32 2.73.5 4.09-.18-1.36-.34-2.73-.5-4.09zM.94 309.73q.15 1.75.33 3.51c-.12-1.17-.22-2.34-.33-3.51zM3.66 330.73zM1.3 253.38c-.17 1.62-.31 3.25-.46 4.88.15-1.63.29-3.26.46-4.88zM.6 261c-.11 1.32-.18 2.64-.27 4 .09-1.36.16-2.68.27-4zM.04 296.85v1.34c.03-.45.02-.9 0-1.34zM.1 268.63c0 .82-.07 1.66-.1 2.48.03-.82.06-1.66.1-2.48z" fill="red"/></svg>