<svg data-name="Capa 1" xmlns="http://www.w3.org/2000/svg" viewBox="0 0 566.93 566.68"><path d="M70.64 470.68a284.87 284.87 0 0057 49.56v-49.56z" fill="red"/><path d="M399.59 118.68v160h-16v-144H42.16q-5.62 9.1-10.57 18.64v260.29a284.44 284.44 0 0026 41.07h22v-64h168v144h-95.53a281.94 281.94 0 00119.9 32h23c4.35-.17 8.67-.45 13-.81a104.22 104.22 0 01-36.35-78.9V358.68h30.31a99.58 99.58 0 0083-44.44l6.66-10 6.65 10a99.61 99.61 0 0083 44.44h30.31v93.05a282.18 282.18 0 0055.34-168.26C566.88 126.91 439.97 0 283.41 0A283.09 283.09 0 0052.8 118.68zm-184 256h-152v-16h152zm0-32h-152v-16h152zm32 32h-16v-16h16zm0-32h-16v-16h16zm72-32h-256v-16h256zm0-32h-256v-16h256zm0-32h-256v-16h256zm32 64h-16v-16h16zm0-32h-16v-16h16zm0-32h-16v-16h16zm0-48h-288v-48h288z" fill="red"/><path fill="red" d="M79.59 166.68h256v16h-256zM481.28 374.68a115.54 115.54 0 01-89.69-42.55 115.54 115.54 0 01-89.69 42.55h-14.31v112.29a88.2 88.2 0 0043.56 76 282.25 282.25 0 00129.54-58.24 55.71 55.71 0 002.9-17.71v-48.34h16v49.46q8.34-8 16-16.67v-96.79zM351.59 521.99l-37.66-37.65 11.31-11.31 26.35 26.31 106.34-106.32 11.31 11.32zM15.59 190.57a284.56 284.56 0 000 185.79zM231.59 518.68v-112h-136v48h48v64zm-16-16h-56v-16h56zm0-32h-56v-16h56zm-104-32v-16h104v16z"/></svg>