<svg width="47" height="60" viewBox="0 0 47 60" fill="none" xmlns="http://www.w3.org/2000/svg">
<path d="M8.83551 44.7985C7.33926 46.2202 5.00556 46.2659 3.45488 44.9037C1.81677 43.4647 1.63749 40.9771 3.05235 39.318L32.1954 5.14592C34.5724 2.35865 38.8094 2.158 41.4392 4.70815C44.0277 7.21823 44.0067 11.3782 41.3928 13.8619L8.83551 44.7985Z" fill="#F8D008"/>
<path d="M11.6779 55.6933C10.5366 56.2163 9.18465 55.7901 8.54968 54.7071C7.87415 53.5549 8.24808 52.0739 9.38956 51.3805L29.9599 38.8844C31.8522 37.7349 34.3219 38.4171 35.3558 40.3749C36.3871 42.3276 35.5654 44.7456 33.5579 45.6657L11.6779 55.6933Z" fill="#F8D008"/>
</svg>
