<svg xmlns="http://www.w3.org/2000/svg" viewBox="0 0 512 512"><linearGradient id="a" gradientUnits="userSpaceOnUse" x1="432.016" y1="255.83" x2="451.986" y2="255.83"><stop offset="0" stop-color="#3fab53"/><stop offset="1" stop-color="#48e364"/></linearGradient><path d="M442 265.8c-4.2 0-8-2.7-9.4-6.6-1.4-3.8-.2-8.4 2.9-11 3.3-2.8 8.1-3.1 11.7-.9 3.5 2.2 5.3 6.4 4.5 10.4-.8 4.7-5 8.1-9.7 8.1z" fill="url(#a)"/><linearGradient id="b" gradientUnits="userSpaceOnUse" x1="303.614" y1="385" x2="364.685" y2="385"><stop offset="0" stop-color="#3fab53"/><stop offset="1" stop-color="#48e364"/></linearGradient><path d="M354.7 395h-41.1c-5.5 0-10-4.5-10-10s4.5-10 10-10h41.1c5.5 0 10 4.5 10 10s-4.5 10-10 10z" fill="url(#b)"/><linearGradient id="c" gradientUnits="userSpaceOnUse" x1="303.614" y1="415.638" x2="364.685" y2="415.638"><stop offset="0" stop-color="#3fab53"/><stop offset="1" stop-color="#48e364"/></linearGradient><path d="M354.7 425.6h-41.1c-5.5 0-10-4.5-10-10s4.5-10 10-10h41.1c5.5 0 10 4.5 10 10s-4.5 10-10 10z" fill="url(#c)"/><linearGradient id="d" gradientUnits="userSpaceOnUse" x1="303.614" y1="254.511" x2="364.685" y2="254.511"><stop offset="0" stop-color="#3fab53"/><stop offset="1" stop-color="#48e364"/></linearGradient><path d="M354.7 264.5h-41.1c-5.5 0-10-4.5-10-10s4.5-10 10-10h41.1c5.5 0 10 4.5 10 10s-4.5 10-10 10z" fill="url(#d)"/><linearGradient id="e" gradientUnits="userSpaceOnUse" x1="147.315" y1="254.511" x2="208.387" y2="254.511"><stop offset="0" stop-color="#3fab53"/><stop offset="1" stop-color="#48e364"/></linearGradient><path d="M198.4 244.5h-10.5V234c0-5.5-4.5-10-10-10s-10 4.5-10 10v10.5h-10.5c-5.5 0-10 4.5-10 10s4.5 10 10 10h10.5V275c0 5.5 4.5 10 10 10s10-4.5 10-10v-10.5h10.5c5.5 0 10-4.5 10-10s-4.5-10-10-10z" fill="url(#e)"/><linearGradient id="f" gradientUnits="userSpaceOnUse" x1="153.328" y1="401.49" x2="202.371" y2="401.49"><stop offset="0" stop-color="#3fab53"/><stop offset="1" stop-color="#48e364"/></linearGradient><path d="M199.4 379.9c-3.9-3.9-10.2-3.9-14.1 0l-7.4 7.5-7.4-7.5c-3.9-3.9-10.2-3.9-14.1 0-3.9 3.9-3.9 10.2 0 14.1l7.4 7.5-7.4 7.5c-3.9 3.9-3.9 10.2 0 14.1 2 2 4.5 2.9 7.1 2.9s5.1-1 7.1-2.9l7.4-7.5 7.4 7.5c2 2 4.5 2.9 7.1 2.9s5.1-1 7.1-2.9c3.9-3.9 3.9-10.2 0-14.1l-7.4-7.5 7.4-7.5c3.7-3.9 3.7-10.2-.2-14.1z" fill="url(#f)"/><linearGradient id="g" gradientUnits="userSpaceOnUse" x1="264.936" y1="401.49" x2="403.361" y2="401.49"><stop offset="0" stop-color="#3fab53"/><stop offset="1" stop-color="#48e364"/></linearGradient><path d="M393.4 465.7H274.9c-5.5 0-10-4.5-10-10V347.3c0-5.5 4.5-10 10-10h118.4c5.5 0 10 4.5 10 10v108.4c.1 5.5-4.4 10-9.9 10zm-108.5-20h98.4v-88.4h-98.4v88.4z" fill="url(#g)"/><linearGradient id="h" gradientUnits="userSpaceOnUse" x1="108.638" y1="401.49" x2="247.063" y2="401.49"><stop offset="0" stop-color="#3fab53"/><stop offset="1" stop-color="#48e364"/></linearGradient><path d="M237.1 465.7H118.6c-5.5 0-10-4.5-10-10V347.3c0-5.5 4.5-10 10-10H237c5.5 0 10 4.5 10 10v108.4c.1 5.5-4.4 10-9.9 10zm-108.5-20H227v-88.4h-98.4v88.4z" fill="url(#h)"/><linearGradient id="i" gradientUnits="userSpaceOnUse" x1="264.936" y1="254.511" x2="403.361" y2="254.511"><stop offset="0" stop-color="#3fab53"/><stop offset="1" stop-color="#48e364"/></linearGradient><path d="M393.4 318.7H274.9c-5.5 0-10-4.5-10-10V200.3c0-5.5 4.5-10 10-10h118.4c5.5 0 10 4.5 10 10v108.4c.1 5.5-4.4 10-9.9 10zm-108.5-20h98.4v-88.4h-98.4v88.4z" fill="url(#i)"/><linearGradient id="j" gradientUnits="userSpaceOnUse" x1="108.638" y1="254.511" x2="247.063" y2="254.511"><stop offset="0" stop-color="#3fab53"/><stop offset="1" stop-color="#48e364"/></linearGradient><path d="M237.1 318.7H118.6c-5.5 0-10-4.5-10-10V200.3c0-5.5 4.5-10 10-10H237c5.5 0 10 4.5 10 10v108.4c.1 5.5-4.4 10-9.9 10zm-108.5-20H227v-88.4h-98.4v88.4z" fill="url(#j)"/><linearGradient id="k" gradientUnits="userSpaceOnUse" x1="108.638" y1="100.213" x2="403.362" y2="100.213"><stop offset="0" stop-color="#3fab53"/><stop offset="1" stop-color="#48e364"/></linearGradient><path d="M393.4 154.1H118.6c-5.5 0-10-4.5-10-10V56.3c0-5.5 4.5-10 10-10h274.7c5.5 0 10 4.5 10 10v87.8c.1 5.6-4.4 10-9.9 10zm-264.8-20h254.7V66.3H128.6v67.8z" fill="url(#k)"/><linearGradient id="l" gradientUnits="userSpaceOnUse" x1="60.001" y1="256" x2="452" y2="256"><stop offset="0" stop-color="#3fab53"/><stop offset="1" stop-color="#48e364"/></linearGradient><path d="M422.9 512H89.1C73 512 60 499 60 482.9V29.1C60 13 73 0 89.1 0H423c16 0 29 13 29 29.1v181.7c0 5.5-4.5 10-10 10s-10-4.5-10-10V29.1c0-5-4.1-9.1-9.1-9.1H89.1c-5 0-9.1 4.1-9.1 9.1V483c0 5 4.1 9.1 9.1 9.1H423c5 0 9.1-4.1 9.1-9.1V301.2c0-5.5 4.5-10 10-10s10 4.5 10 10v181.7C452 499 439 512 422.9 512z" fill="url(#l)"/></svg>