<svg xmlns="http://www.w3.org/2000/svg" viewBox="0 0 512 512"><linearGradient id="a" gradientUnits="userSpaceOnUse" x1="179.2" y1="198.301" x2="332.8" y2="198.301" gradientTransform="matrix(1 0 0 -1 0 514.001)"><stop offset="0" stop-color="#3fab53"/><stop offset="1" stop-color="#48e364"/></linearGradient><path d="M179.2 315.7c0 42.4 34.4 76.8 76.8 76.8s76.8-34.4 76.8-76.8-34.4-76.8-76.8-76.8c-42.4.1-76.7 34.4-76.8 76.8zm136.5 0c0 33-26.7 59.7-59.7 59.7s-59.7-26.7-59.7-59.7S223 256 256 256s59.7 26.8 59.7 59.7z" fill="url(#a)"/><linearGradient id="b" gradientUnits="userSpaceOnUse" x1="0" y1="258.051" x2="512.1" y2="258.051" gradientTransform="matrix(1 0 0 -1 0 514.001)"><stop offset="0" stop-color="#3fab53"/><stop offset="1" stop-color="#48e364"/></linearGradient><path d="M392.5 145.1v18.6c-11.7 4.1-18.8 16.1-16.7 28.4 2.1 12.3 12.8 21.2 25.2 21.2h85.3c12.5 0 23.1-8.9 25.2-21.2 2.1-12.3-4.9-24.3-16.7-28.4v-18.6c-.1-15.5-10.6-29-25.6-32.9V85.3c9.4 0 17.1-7.6 17.1-17.1V17.1c0-9.4-7.6-17.1-17.1-17.1H418c-6.1 0-11.7 3.3-14.7 8.5h-73c-3-5.3-8.6-8.5-14.7-8.5H196.3c-6.1 0-11.7 3.3-14.7 8.5H83C79.9 3.3 74.3 0 68.3 0H17.1C7.6 0 0 7.6 0 17.1v51.2c0 9.4 7.6 17.1 17.1 17.1v59.7c0 28.3 22.9 51.2 51.2 51.2h18.6C91 208 103 215.1 115.3 213s21.2-12.8 21.2-25.2v-51.2c0-12.5-8.9-23.1-21.2-25.2S91 116.3 86.9 128H76.8c-4.7 0-8.5-3.8-8.5-8.5V85.3c6.1 0 11.7-3.3 14.7-8.5h70.6V128c0 14.1 11.5 25.6 25.6 25.6h42.7v8.5c0 6.1 3.3 11.7 8.5 14.7v28h-68.3c-14.1 0-25.6 11.5-25.6 25.6v181.8l-125.4 47c-2 .8-3.9 2-5.5 3.5-.5.4-1 .9-1.4 1.5-2.7 3-4.2 6.9-4.2 10.9v19.7c0 9.4 7.6 17.1 17.1 17.1H495c9.4 0 17.1-7.6 17.1-17.1v-19.7c-.1-4-1.6-7.9-4.2-11-.4-.5-.9-1-1.4-1.5-1.6-1.5-3.4-2.7-5.5-3.5l-125.5-47V230.4c0-14.1-11.5-25.6-25.6-25.6h-68.3v-28c5.3-3 8.5-8.6 8.5-14.7v-8.5h42.7c14.1 0 25.6-11.5 25.6-25.6V76.8h45c3 5.3 8.6 8.5 14.7 8.5v26.8c-15 3.9-25.5 17.4-25.6 33zm93.9 51.2h-85.3c-4.7 0-8.5-3.8-8.5-8.5s3.8-8.5 8.5-8.5h85.3c4.7 0 8.5 3.8 8.5 8.5s-3.8 8.5-8.5 8.5zm-8.5-51.2v17.1h-68.3v-17.1c0-9.4 7.6-17.1 17.1-17.1h34.1c9.4 0 17.1 7.6 17.1 17.1zm-8.6-128v51.2h-51.2V17.1h51.2zM332.8 59.7V25.6h68.3v34.1h-68.3zm-17.1-42.6v51.2H196.3V17.1h119.4zM110.9 128c4.7 0 8.5 3.8 8.5 8.5v51.2c0 4.7-3.8 8.5-8.5 8.5s-8.5-3.8-8.5-8.5v-51.2c0-4.7 3.8-8.5 8.5-8.5zm-34.1 17.1h8.5v34.1h-17c-18.9 0-34.1-15.3-34.1-34.1V85.3h17.1v34.1c-.1 14.2 11.4 25.7 25.5 25.7zM59.7 68.3H17.1V17.1h51.2v51.2h-8.6zm25.6-42.7h93.9v34.1H85.3V25.6zm187.8 119.5v17.1H239V128h34.1v17.1zm183.3 315.7H55.6l91-34.1h218.8l91 34.1zM17.1 494.9v-17.1H495v17.1H17.1zm341.3-264.5v179.2H153.6V230.4c0-4.7 3.8-8.5 8.5-8.5h187.7c4.8 0 8.6 3.8 8.6 8.5zm-110.9-25.6v-25.6h17.1v25.6h-17.1zm93.8-76.8c0 4.7-3.8 8.5-8.5 8.5h-42.7V128c0-9.4-7.6-17.1-17.1-17.1h-34.1c-9.4 0-17.1 7.6-17.1 17.1v8.5h-42.7c-4.7 0-8.5-3.8-8.5-8.5V76.8h10.9c3 5.3 8.6 8.5 14.7 8.5h119.5c6.1 0 11.7-3.3 14.7-8.5h10.9V128zm111-42.7v25.6h-17.1V85.3h17.1z" fill="url(#b)"/><linearGradient id="c" gradientUnits="userSpaceOnUse" x1="247.467" y1="232.401" x2="264.533" y2="232.401" gradientTransform="matrix(1 0 0 -1 0 514.001)"><stop offset="0" stop-color="#3fab53"/><stop offset="1" stop-color="#48e364"/></linearGradient><circle cx="256" cy="281.6" r="8.5" fill="url(#c)"/><linearGradient id="d" gradientUnits="userSpaceOnUse" x1="215.005" y1="208.802" x2="232.077" y2="208.802" gradientTransform="matrix(1 0 0 -1 0 514.001)"><stop offset="0" stop-color="#3fab53"/><stop offset="1" stop-color="#48e364"/></linearGradient><path d="M231.7 307.8c1.1-3.3.1-6.9-2.6-9.1s-6.3-2.7-9.4-1.1c-3.1 1.6-4.9 4.8-4.6 8.3s2.6 6.4 5.9 7.4c4.4 1.5 9.2-1 10.7-5.5z" fill="url(#d)"/><linearGradient id="e" gradientUnits="userSpaceOnUse" x1="227.413" y1="170.695" x2="244.484" y2="170.695" gradientTransform="matrix(1 0 0 -1 0 514.001)"><stop offset="0" stop-color="#3fab53"/><stop offset="1" stop-color="#48e364"/></linearGradient><path d="M229 338.3c-2.8 3.8-1.9 9.1 1.9 11.9 3.8 2.8 9.1 1.9 11.9-1.9 2.8-3.8 1.9-9.1-1.9-11.9-1.8-1.3-4.1-1.9-6.4-1.5-2.1.4-4.1 1.6-5.5 3.4z" fill="url(#e)"/><linearGradient id="f" gradientUnits="userSpaceOnUse" x1="267.511" y1="170.605" x2="284.579" y2="170.605" gradientTransform="matrix(1 0 0 -1 0 514.001)"><stop offset="0" stop-color="#3fab53"/><stop offset="1" stop-color="#48e364"/></linearGradient><path d="M281.1 350.3c3.8-2.8 4.6-8.1 1.9-11.9-2.8-3.8-8.1-4.6-11.9-1.9-3.8 2.8-4.7 8.1-1.9 11.9 1.3 1.8 3.3 3.1 5.6 3.4 2.2.3 4.4-.2 6.3-1.5z" fill="url(#f)"/><linearGradient id="g" gradientUnits="userSpaceOnUse" x1="279.927" y1="208.802" x2="296.995" y2="208.802" gradientTransform="matrix(1 0 0 -1 0 514.001)"><stop offset="0" stop-color="#3fab53"/><stop offset="1" stop-color="#48e364"/></linearGradient><path d="M291.1 313.3c3.3-1.1 5.6-4 5.9-7.4s-1.6-6.7-4.6-8.3c-3.1-1.6-6.8-1.1-9.4 1.1s-3.6 5.8-2.6 9.1c1.4 4.5 6.2 7 10.7 5.5z" fill="url(#g)"/></svg>