<svg xmlns="http://www.w3.org/2000/svg" viewBox="0 0 512 512"><linearGradient id="a" gradientUnits="userSpaceOnUse" x1="0" y1="256" x2="512" y2="256"><stop offset="0" stop-color="#3fab53"/><stop offset="1" stop-color="#48e364"/></linearGradient><path d="M512 175.3c0-2.7-1.1-5.2-2.9-7.1l-22.6-22.6 22.6-22.6c1.9-1.9 2.9-4.4 2.9-7.1s-1.1-5.2-2.9-7.1l-29.7-29.7c-1.9-1.9-4.4-2.9-7.1-2.9s-5.2 1.1-7.1 2.9l-22.6 22.6L420 79.1l-9.7-9.6 22.6-22.6c1.9-1.9 2.9-4.4 2.9-7.1 0-2.6-1.1-5.2-2.9-7.1L403.2 2.9C401.3 1 398.8 0 396.1 0s-5.2 1.1-7.1 2.9l-22.6 22.6-22.6-22.6C341.9 1 339.4 0 336.7 0s-5.2 1.1-7.1 2.9L307 25.6 284.4 2.9C282.5 1.1 280 0 277.3 0c-2.7 0-5.2 1.1-7.1 2.9l-22.6 22.6L225 2.9C223.1 1 220.6 0 217.9 0s-5.2 1.1-7.1 2.9l-22.6 22.6-22.6-22.6C163.7 1 161.2 0 158.5 0s-5.2 1.1-7.1 2.9l-22.6 22.6-22.6-22.6C104.3 1 101.8 0 99.1 0S93.9 1.1 92 2.9L69.4 25.6 46.8 2.9C44.9 1.1 42.4 0 39.7 0c-2.6 0-5.2 1.1-7.1 2.9L2.9 32.6C1.1 34.5 0 37.1 0 39.7c0 2.7 1.1 5.2 2.9 7.1l22.6 22.6L2.9 92C1.1 93.9 0 96.5 0 99.1s1.1 5.2 2.9 7.1l22.6 22.6-22.6 22.7C1 153.4 0 155.9 0 158.6s1.1 5.2 2.9 7.1l22.6 22.6-22.6 22.6c-3.9 3.9-3.9 10.2 0 14.1l22.6 22.6-22.6 22.7C1 272.2 0 274.7 0 277.4c0 2.7 1.1 5.2 2.9 7.1L25.6 307 2.9 329.7C1 331.6 0 334.1 0 336.8s1.1 5.2 2.9 7.1l22.6 22.6-22.6 22.6C1.1 391 0 393.5 0 396.2s1.1 5.2 2.9 7.1L32.6 433c1.9 1.9 4.4 2.9 7.1 2.9 2.7 0 5.2-1.1 7.1-2.9l22.6-22.6L92 432.9l9.6 9.6L79 465.1c-1.9 1.9-2.9 4.4-2.9 7.1 0 2.6 1.1 5.2 2.9 7.1l29.7 29.7c1.9 1.9 4.4 2.9 7.1 2.9s5.2-1.1 7.1-2.9l22.6-22.6 22.6 22.6c1.9 1.9 4.4 2.9 7.1 2.9 2.7 0 5.2-1.1 7.1-2.9l22.6-22.6 22.6 22.6c1.9 1.9 4.4 2.9 7.1 2.9s5.2-1.1 7.1-2.9l22.6-22.6 22.6 22.6c1.9 1.9 4.4 2.9 7.1 2.9s5.2-1.1 7.1-2.9l22.6-22.6 22.6 22.6c1.9 1.9 4.4 2.9 7.1 2.9s5.2-1.1 7.1-2.9l22.6-22.6 22.6 22.6c1.9 1.9 4.4 2.9 7.1 2.9s5.2-1.1 7.1-2.9l22.6-22.6 22.6 22.6c1.9 1.9 4.4 2.9 7.1 2.9s5.2-1.1 7.1-2.9l29.7-29.7c1.9-1.9 2.9-4.4 2.9-7.1 0-2.7-1.1-5.2-2.9-7.1l-22.6-22.6 22.6-22.6c1.9-1.9 2.9-4.4 2.9-7.1s-1.1-5.2-2.9-7.1l-22.6-22.6 22.6-22.6c1.9-1.9 2.9-4.4 2.9-7.1s-1.1-5.2-2.9-7.1l-22.6-22.6 22.6-22.6c3.9-3.9 3.9-10.2 0-14.1l-22.6-22.6 22.6-22.6c1.9-1.9 2.9-4.4 2.9-7.1 0-2.6-1.1-5.2-2.9-7.1L486.4 205l22.6-22.6c1.9-2 3-4.5 3-7.1zM99.1 411.7l-5.9-5.9-16.7-16.7c-1.9-1.9-4.4-2.9-7.1-2.9s-5.2 1.1-7.1 2.9l-22.6 22.6-15.6-15.6 22.6-22.6c1.9-1.9 2.9-4.4 2.9-7.1s-1.1-5.2-2.9-7.1l-22.6-22.6 22.6-22.6c1.9-1.9 2.9-4.4 2.9-7.1s-1.1-5.2-2.9-7.1l-22.6-22.6 22.6-22.6c1.9-1.9 2.9-4.4 2.9-7.1s-1.1-5.2-2.9-7.1l-12.6-12.6h49.5c5.5 0 10-4.5 10-10s-4.5-10-10-10H34.1l12.6-12.6c1.9-1.9 2.9-4.4 2.9-7.1s-1.1-5.2-2.9-7.1l-22.6-22.6 22.6-22.6c1.9-1.9 2.9-4.4 2.9-7.1s-1.1-5.2-2.9-7.1L24.1 99.1l22.6-22.6c1.9-1.9 2.9-4.4 2.9-7.1s-1.1-5.2-2.9-7.1L24.1 39.7l15.6-15.6 22.6 22.6c1.9 1.9 4.4 2.9 7.1 2.9s5.2-1.1 7.1-2.9l22.6-22.6 22.6 22.6c1.9 1.9 4.4 2.9 7.1 2.9s5.2-1.1 7.1-2.9l22.6-22.6 22.6 22.6c1.9 1.9 4.4 2.9 7.1 2.9s5.2-1.1 7.1-2.9l22.6-22.6 22.6 22.6c1.9 1.9 4.4 2.9 7.1 2.9s5.2-1.1 7.1-2.9l22.6-22.6L300 46.8c1.9 1.9 4.4 2.9 7.1 2.9s5.2-1.1 7.1-2.9l22.6-22.6 22.6 22.6c1.9 1.9 4.4 2.9 7.1 2.9 2.7 0 5.2-1.1 7.1-2.9l22.6-22.6 15.6 15.6-22.6 22.6c-1.9 1.9-2.9 4.4-2.9 7.1s1.1 5.2 2.9 7.1l22.6 22.6-22.6 22.6c-1.9 1.9-2.9 4.4-2.9 7.1s1.1 5.2 2.9 7.1l22.6 22.6-22.6 22.6c-1.9 1.9-2.9 4.4-2.9 7.1s1.1 5.2 2.9 7.1l22.6 22.6-22.6 22.6c-1.9 1.9-2.9 4.4-2.9 7.1s1.1 5.2 2.9 7.1l22.6 22.6-22.7 22.6c-1.9 1.9-2.9 4.4-2.9 7.1s1.1 5.2 2.9 7.1l22.6 22.6-22.6 22.6c-1.9 1.9-2.9 4.4-2.9 7.1 0 2.7 1.1 5.2 2.9 7.1l22.6 22.6-15.6 15.6-22.6-22.6c-1.9-1.9-4.4-2.9-7.1-2.9s-5.2 1.1-7.1 2.9l-22.6 22.6-22.6-22.6c-1.9-1.9-4.4-2.9-7.1-2.9s-5.2 1.1-7.1 2.9l-22.6 22.6-22.6-22.6c-1.9-1.9-4.4-2.9-7.1-2.9-2.7 0-5.2 1.1-7.1 2.9l-22.6 22.6-22.6-22.6c-1.9-1.9-4.4-2.9-7.1-2.9s-5.2 1.1-7.1 2.9l-22.6 22.6-22.6-22.6c-1.9-1.9-4.4-2.9-7.1-2.9s-5.2 1.1-7.1 2.9l-22.6 22.5zm366.1-213.8c-1.9 1.9-2.9 4.4-2.9 7.1s1.1 5.2 2.9 7.1l22.6 22.6-22.6 22.6c-1.9 1.9-2.9 4.4-2.9 7.1s1.1 5.2 2.9 7.1l22.6 22.6-22.6 22.6c-1.9 1.9-2.9 4.4-2.9 7.1s1.1 5.2 2.9 7.1l22.6 22.6-22.6 22.6c-1.9 1.9-2.9 4.4-2.9 7.1s1.1 5.2 2.9 7.1l22.6 22.6-22.6 22.6c-1.9 1.9-2.9 4.4-2.9 7.1s1.1 5.2 2.9 7.1l22.6 22.6-15.6 15.6-22.6-22.6c-1.9-1.9-4.4-2.9-7.1-2.9s-5.2 1.1-7.1 2.9l-22.6 22.6-22.6-22.6c-1.9-1.9-4.4-2.9-7.1-2.9s-5.2 1.1-7.1 2.9l-22.6 22.6-22.6-22.6c-1.9-1.9-4.4-2.9-7.1-2.9s-5.2 1.1-7.1 2.9L294 487.9l-22.6-22.6c-1.9-1.9-4.4-2.9-7.1-2.9-2.6 0-5.2 1.1-7.1 2.9l-22.6 22.6-22.6-22.7c-1.9-1.9-4.4-2.9-7.1-2.9s-5.2 1.1-7.1 2.9l-22.6 22.6-22.6-22.6c-1.9-1.9-4.4-2.9-7.1-2.9s-5.2 1.1-7.1 2.9l-22.6 22.6-15.6-15.6 22.6-22.6c1.9-1.9 2.9-4.4 2.9-7.1s-1.1-5.2-2.9-7.1l-9.7-9.7 15.6-15.6 22.6 22.6c1.9 1.9 4.4 2.9 7.1 2.9s5.2-1.1 7.1-2.9l22.6-22.6 22.6 22.6c1.9 1.9 4.4 2.9 7.1 2.9s5.2-1.1 7.1-2.9l22.6-22.6 22.6 22.6c1.9 1.9 4.4 2.9 7.1 2.9 2.6 0 5.2-1.1 7.1-2.9l22.6-22.6 22.6 22.6c1.9 1.9 4.4 2.9 7.1 2.9s5.2-1.1 7.1-2.9l22.6-22.6 22.6 22.6c1.9 1.9 4.4 2.9 7.1 2.9s5.2-1.1 7.1-2.9l29.7-29.7c1.9-1.9 2.9-4.4 2.9-7.1s-1.1-5.2-2.9-7.1l-22.6-22.6 22.6-22.6c1.9-1.9 2.9-4.4 2.9-7.1s-1.1-5.2-2.9-7.1L410.3 307l22.6-22.6c1.9-1.9 2.9-4.4 2.9-7.1 0-2.7-1.1-5.2-2.9-7.1l-22.6-22.6 22.6-22.6c3.9-3.9 3.9-10.2 0-14.1l-22.6-22.6 22.6-22.6c1.9-1.9 2.9-4.4 2.9-7.1s-1.1-5.2-2.9-7.1l-22.6-22.6 15.6-15.6 9.7 9.7c1.9 1.9 4.4 2.9 7.1 2.9s5.2-1.1 7.1-2.9l22.6-22.6L488 116l-22.6 22.6c-1.9 1.9-2.9 4.4-2.9 7.1s1.1 5.2 2.9 7.1l22.6 22.6-22.8 22.5z" fill="url(#a)"/><linearGradient id="b" gradientUnits="userSpaceOnUse" x1="71.911" y1="124.746" x2="173.632" y2="124.746"><stop offset="0" stop-color="#3fab53"/><stop offset="1" stop-color="#48e364"/></linearGradient><path d="M122.8 179.3c9.6 0 18.3-5.1 23.7-13.5 9.9-.4 18.7-5.4 23.6-13.8 4.8-8.3 4.7-18.4.2-27.3 4.6-8.8 4.7-18.9-.2-27.3-4.8-8.4-13.6-13.3-23.6-13.8-5.4-8.4-14.1-13.5-23.7-13.5s-18.4 5.1-23.7 13.5c-9.9.4-18.7 5.4-23.6 13.8-4.8 8.3-4.7 18.4-.2 27.3-4.6 8.8-4.7 18.9.2 27.3 4.8 8.4 13.6 13.3 23.6 13.8 5.3 8.4 14 13.5 23.7 13.5zm-30-37.3c-1.7-3-.9-7.3 2.1-10.7 3.2-3.8 3.2-9.3 0-13.1-3-3.4-3.8-7.8-2.1-10.7 1.7-3 5.9-4.4 10.4-3.5 4.9.9 9.7-1.8 11.3-6.5 1.5-4.3 4.8-7.2 8.3-7.2s6.8 2.9 8.2 7.2c1.6 4.7 6.5 7.5 11.3 6.5 4.5-.9 8.6.6 10.4 3.5s.9 7.3-2.1 10.7c-3.3 3.8-3.3 9.3 0 13.1 3 3.4 3.8 7.8 2.1 10.7-1.7 3-5.9 4.4-10.4 3.5-4.9-.9-9.7 1.8-11.3 6.5-1.5 4.3-4.8 7.2-8.2 7.2s-6.8-2.9-8.2-7.2c-1.4-4.1-5.3-6.7-9.4-6.7-.6 0-1.3.1-1.9.2-4.6.9-8.7-.5-10.5-3.5z" fill="url(#b)"/><linearGradient id="c" gradientUnits="userSpaceOnUse" x1="112.648" y1="124.738" x2="132.648" y2="124.738"><stop offset="0" stop-color="#3fab53"/><stop offset="1" stop-color="#48e364"/></linearGradient><path d="M122.6 134.7c2.6 0 5.2-1.1 7.1-2.9 1.9-1.9 2.9-4.4 2.9-7.1 0-2.6-1.1-5.2-2.9-7.1-1.9-1.9-4.4-2.9-7.1-2.9-2.6 0-5.2 1.1-7.1 2.9-1.9 1.9-2.9 4.4-2.9 7.1 0 2.6 1.1 5.2 2.9 7.1 1.9 1.9 4.5 2.9 7.1 2.9z" fill="url(#c)"/><linearGradient id="d" gradientUnits="userSpaceOnUse" x1="261.978" y1="124.744" x2="363.7" y2="124.744"><stop offset="0" stop-color="#3fab53"/><stop offset="1" stop-color="#48e364"/></linearGradient><path d="M265.6 152c4.8 8.4 13.6 13.3 23.6 13.8 5.4 8.4 14.1 13.5 23.7 13.5s18.3-5.1 23.7-13.5c9.9-.4 18.7-5.4 23.6-13.8s4.7-18.4.2-27.3c4.6-8.8 4.7-18.9-.2-27.3s-13.6-13.3-23.6-13.8c-5.4-8.4-14.1-13.5-23.7-13.5s-18.4 5.1-23.7 13.5c-9.9.4-18.7 5.4-23.6 13.8-4.8 8.4-4.7 18.4-.2 27.3-4.6 8.9-4.6 19 .2 27.3zm17.3-44.5c1.7-3 5.9-4.4 10.4-3.5 4.9.9 9.7-1.8 11.3-6.5 1.5-4.3 4.8-7.2 8.2-7.2s6.8 2.9 8.3 7.2c1.6 4.7 6.4 7.5 11.3 6.5 4.5-.9 8.6.6 10.4 3.5s.9 7.3-2.1 10.7c-3.2 3.8-3.2 9.3 0 13.1 3 3.4 3.8 7.8 2.1 10.7s-5.9 4.4-10.4 3.5c-4.9-.9-9.7 1.8-11.3 6.5-1.5 4.3-4.8 7.2-8.2 7.2-3.4 0-6.8-2.9-8.3-7.2-1.4-4.1-5.3-6.7-9.4-6.7-.6 0-1.3.1-1.9.2-4.5.9-8.6-.6-10.4-3.5-1.7-3-.9-7.3 2.1-10.7 3.2-3.8 3.2-9.3 0-13.1-3-3.4-3.8-7.8-2.1-10.7z" fill="url(#d)"/><linearGradient id="e" gradientUnits="userSpaceOnUse" x1="302.711" y1="124.738" x2="322.711" y2="124.738"><stop offset="0" stop-color="#3fab53"/><stop offset="1" stop-color="#48e364"/></linearGradient><path d="M312.7 134.7c2.6 0 5.2-1.1 7.1-2.9 1.9-1.9 2.9-4.4 2.9-7.1 0-2.6-1.1-5.2-2.9-7.1-1.9-1.9-4.4-2.9-7.1-2.9-2.6 0-5.2 1.1-7.1 2.9-1.9 1.9-2.9 4.4-2.9 7.1 0 2.6 1.1 5.2 2.9 7.1 1.9 1.9 4.5 2.9 7.1 2.9z" fill="url(#e)"/><linearGradient id="f" gradientUnits="userSpaceOnUse" x1="71.911" y1="311.121" x2="173.632" y2="311.121"><stop offset="0" stop-color="#3fab53"/><stop offset="1" stop-color="#48e364"/></linearGradient><path d="M146.5 352.2c9.9-.4 18.7-5.4 23.6-13.8 4.8-8.3 4.7-18.4.2-27.3 4.6-8.8 4.7-18.9-.2-27.3-4.8-8.4-13.6-13.3-23.6-13.8-5.4-8.4-14.1-13.5-23.7-13.5s-18.4 5.1-23.7 13.5c-9.9.4-18.7 5.4-23.6 13.8-4.8 8.3-4.7 18.4-.2 27.3-4.6 8.8-4.7 18.9.2 27.3 4.8 8.4 13.6 13.3 23.6 13.8 5.4 8.4 14.1 13.5 23.7 13.5s18.3-5.1 23.7-13.5zm-32-13.7c-1.4-4.1-5.3-6.7-9.4-6.7-.6 0-1.3.1-1.9.2-4.5.9-8.6-.6-10.4-3.5-1.7-3-.9-7.3 2.1-10.7 3.3-3.8 3.3-9.3 0-13.1-3-3.4-3.8-7.8-2.1-10.7 1.7-3 5.9-4.4 10.4-3.5 4.9.9 9.7-1.9 11.3-6.5 1.5-4.3 4.8-7.2 8.3-7.2s6.8 2.9 8.2 7.2c1.6 4.7 6.5 7.5 11.3 6.5 4.5-.9 8.6.6 10.4 3.5 1.7 3 .9 7.3-2.1 10.7-3.2 3.8-3.2 9.3 0 13.1 3 3.4 3.8 7.8 2.1 10.7-1.7 3-5.9 4.4-10.4 3.5-4.9-.9-9.7 1.9-11.3 6.5-1.5 4.3-4.8 7.2-8.3 7.2-3.4 0-6.7-2.9-8.2-7.2z" fill="url(#f)"/><linearGradient id="g" gradientUnits="userSpaceOnUse" x1="112.641" y1="311.121" x2="132.641" y2="311.121"><stop offset="0" stop-color="#3fab53"/><stop offset="1" stop-color="#48e364"/></linearGradient><path d="M132.6 311.1c0-2.6-1.1-5.2-2.9-7.1-1.9-1.9-4.4-2.9-7.1-2.9-2.6 0-5.2 1.1-7.1 2.9-1.9 1.9-2.9 4.4-2.9 7.1 0 2.6 1.1 5.2 2.9 7.1 1.9 1.9 4.4 2.9 7.1 2.9 2.6 0 5.2-1.1 7.1-2.9 1.9-1.9 2.9-4.4 2.9-7.1z" fill="url(#g)"/><linearGradient id="h" gradientUnits="userSpaceOnUse" x1="261.977" y1="311.121" x2="363.7" y2="311.121"><stop offset="0" stop-color="#3fab53"/><stop offset="1" stop-color="#48e364"/></linearGradient><path d="M360.1 283.8c-4.8-8.4-13.6-13.3-23.6-13.8-5.4-8.4-14.1-13.5-23.7-13.5s-18.4 5.1-23.7 13.5c-9.9.4-18.7 5.4-23.6 13.8-4.8 8.3-4.7 18.4-.2 27.3-4.6 8.8-4.7 18.9.2 27.3 4.8 8.4 13.6 13.3 23.6 13.8 5.4 8.4 14.1 13.5 23.7 13.5s18.3-5.1 23.7-13.5c9.9-.4 18.7-5.4 23.6-13.8 4.8-8.3 4.7-18.4.2-27.3 4.5-8.8 4.6-18.9-.2-27.3zm-19.4 33.9c3 3.4 3.8 7.8 2.1 10.7s-5.9 4.4-10.4 3.5c-4.9-.9-9.7 1.9-11.3 6.5-1.5 4.3-4.8 7.2-8.2 7.2s-6.8-2.9-8.3-7.2c-1.4-4.1-5.3-6.7-9.4-6.7-.6 0-1.3.1-1.9.2-4.5.9-8.6-.6-10.4-3.5-1.7-3-.9-7.3 2.1-10.7 3.2-3.8 3.2-9.3 0-13.1-3-3.4-3.8-7.8-2.1-10.7 1.7-3 5.9-4.4 10.4-3.5 4.9.9 9.7-1.9 11.3-6.5 1.5-4.3 4.8-7.2 8.3-7.2 3.4 0 6.8 2.9 8.2 7.2 1.6 4.7 6.5 7.5 11.3 6.5 4.5-.9 8.6.6 10.4 3.5 1.7 3 .9 7.3-2.1 10.7-3.3 3.7-3.3 9.3 0 13.1z" fill="url(#h)"/><linearGradient id="i" gradientUnits="userSpaceOnUse" x1="302.711" y1="311.121" x2="322.711" y2="311.121"><stop offset="0" stop-color="#3fab53"/><stop offset="1" stop-color="#48e364"/></linearGradient><path d="M312.7 301.1c-2.6 0-5.2 1.1-7.1 2.9-1.9 1.9-2.9 4.4-2.9 7.1 0 2.6 1.1 5.2 2.9 7.1 1.9 1.9 4.4 2.9 7.1 2.9 2.6 0 5.2-1.1 7.1-2.9 1.9-1.9 2.9-4.4 2.9-7.1 0-2.6-1.1-5.2-2.9-7.1s-4.5-2.9-7.1-2.9z" fill="url(#i)"/><linearGradient id="j" gradientUnits="userSpaceOnUse" x1="167.071" y1="217.932" x2="268.794" y2="217.932"><stop offset="0" stop-color="#3fab53"/><stop offset="1" stop-color="#48e364"/></linearGradient><path d="M170.5 217.9c-4.6 8.8-4.7 18.9.2 27.3 4.8 8.4 13.6 13.3 23.6 13.8 5.4 8.4 14.1 13.5 23.7 13.5s18.3-5.1 23.7-13.5c9.9-.4 18.7-5.4 23.6-13.8s4.7-18.4.2-27.3c4.6-8.8 4.7-18.9-.2-27.3-4.8-8.3-13.6-13.3-23.6-13.8-5.4-8.4-14.1-13.5-23.7-13.5s-18.4 5.1-23.7 13.5c-9.9.4-18.7 5.4-23.6 13.8-4.8 8.4-4.8 18.5-.2 27.3zm19.6-6.5c-3-3.4-3.8-7.8-2.1-10.7 1.7-3 5.9-4.4 10.4-3.5 4.9.9 9.7-1.9 11.3-6.5 1.5-4.3 4.8-7.2 8.3-7.2 3.4 0 6.8 2.9 8.2 7.2 1.6 4.7 6.5 7.5 11.3 6.5 4.5-.9 8.6.6 10.4 3.5 1.7 3 .9 7.3-2.1 10.7-3.2 3.8-3.2 9.3 0 13.1 3 3.4 3.8 7.8 2.1 10.7s-5.9 4.4-10.4 3.5c-4.9-.9-9.7 1.9-11.3 6.5-1.5 4.3-4.8 7.2-8.2 7.2-3.4 0-6.8-2.9-8.3-7.2-1.4-4.1-5.3-6.7-9.4-6.7-.6 0-1.3.1-1.9.2-4.5.9-8.6-.6-10.4-3.5s-.9-7.3 2.1-10.7c3.3-3.8 3.3-9.4 0-13.1z" fill="url(#j)"/><linearGradient id="k" gradientUnits="userSpaceOnUse" x1="207.809" y1="217.93" x2="227.809" y2="217.93"><stop offset="0" stop-color="#3fab53"/><stop offset="1" stop-color="#48e364"/></linearGradient><path d="M217.8 227.9c2.6 0 5.2-1.1 7.1-2.9 1.9-1.9 2.9-4.4 2.9-7.1 0-2.6-1.1-5.2-2.9-7.1s-4.4-2.9-7.1-2.9c-2.6 0-5.2 1.1-7.1 2.9-1.9 1.9-2.9 4.4-2.9 7.1s1.1 5.2 2.9 7.1c1.9 1.9 4.5 2.9 7.1 2.9z" fill="url(#k)"/><linearGradient id="l" gradientUnits="userSpaceOnUse" x1="113.672" y1="217.93" x2="133.672" y2="217.93"><stop offset="0" stop-color="#3fab53"/><stop offset="1" stop-color="#48e364"/></linearGradient><path d="M116.6 210.9c-1.9 1.9-2.9 4.4-2.9 7.1s1.1 5.2 2.9 7.1c1.9 1.9 4.4 2.9 7.1 2.9 2.6 0 5.2-1.1 7.1-2.9 1.9-1.9 2.9-4.4 2.9-7.1 0-2.6-1.1-5.2-2.9-7.1-1.9-1.9-4.4-2.9-7.1-2.9-2.7-.1-5.2 1-7.1 2.9z" fill="url(#l)"/></svg>