<svg xmlns="http://www.w3.org/2000/svg" viewBox="0 0 512 512"><linearGradient id="a" gradientUnits="userSpaceOnUse" x1="16" y1="256.005" x2="496" y2="256.005"><stop offset="0" stop-color="#3fab53"/><stop offset="1" stop-color="#48e364"/></linearGradient><path d="M440 336h-10.8L412 297.3c-9-20.2-29.1-33.3-51.2-33.3H320v-88c0-4.4-3.6-8-8-8h-42.8c-15-23.8-37.8-41.6-64.6-50.2C215 102.1 224 84.8 224 72c0-30.9-25.1-56-56-56s-56 25.1-56 56c0 12.8 9 30.1 19.4 45.8-26.7 8.7-49.6 26.5-64.6 50.2H24c-4.4 0-8 3.6-8 8v256c0 4.4 3.6 8 8 8h8v8c0 13.2 10.8 24 24 24h46.5c13.2 22.9 42.5 30.8 65.4 17.6 7.3-4.2 13.4-10.3 17.6-17.6h173c13.2 22.9 42.5 30.8 65.4 17.6 7.3-4.2 13.4-10.3 17.6-17.6H472c13.2 0 24-10.8 24-24v-56c0-30.9-25.1-56-56-56zm-88-56h8.8c15.8 0 30.1 9.3 36.6 23.8l14.3 32.2H360c-4.4 0-8-3.6-8-8v-48zm-80.3-56h-39.8c-.4-13.5-2.1-26.9-5-40H260c6.6 12.4 10.6 26 11.7 40zM176 280v-40h39.8c-.4 13.5-2.3 26.9-5.4 40H176zm29.5 16c-7.6 20.2-18.4 33.8-29.5 38.3V296h29.5zM176 224v-40h34.4c3.2 13.1 5 26.5 5.4 40H176zm46.3 72h27.5c-11.4 14.5-26.4 25.8-43.5 32.6 7-10 12.4-21 16-32.6zm4.5-16c2.9-13.1 4.6-26.5 5-40h39.8c-1.1 14-5 27.6-11.4 40h-33.4zm23-112h-27.4c-3.7-11.6-9-22.6-16-32.6 17.1 6.8 32 18.1 43.4 32.6zm-44.4 0H176v-13c2.7-3.1 7.5-8.7 13-15.8 7.3 8.5 12.9 18.3 16.4 28.8zM128 72c0-22.1 17.9-40 40-40s40 17.9 40 40c0 10.5-10.6 28.7-22.9 45.8 0 0-.1.1-.1.2-5.6 7.8-11.6 15.4-17 21.8-5.4-6.5-11.4-14.1-17-21.8 0-.1 0-.1-.1-.2C138.6 100.7 128 82.5 128 72zm19 67.3c5.5 7 10.3 12.6 13 15.8v13h-29.4c3.5-10.6 9.1-20.4 16.4-28.8zM125.6 280c-3.2-13.1-5-26.5-5.4-40H160v40h-34.4zm34.4 16v38.3c-11.1-4.5-21.9-18.1-29.5-38.3H160zm-46.3 0c3.6 11.6 9 22.6 16 32.6-17.1-6.9-32.1-18.1-43.5-32.6h27.5zm-37.9-16c-6.5-12.4-10.4-26-11.4-40h39.8c.4 13.5 2.1 26.9 5 40H75.8zm44.4-56c.4-13.5 2.2-26.9 5.4-40H160v40h-39.8zm9.4-88.6c-7 10-12.3 21-16 32.6H86.2c11.4-14.5 26.3-25.8 43.4-32.6zM76 184h33.2c-2.9 13.1-4.6 26.5-5 40H64.3c1.1-14 5.1-27.6 11.7-40zm-44 0h26.2C51.5 199.1 48 215.5 48 232c0 66.3 53.7 120 120 120s120-53.7 120-120c0-16.5-3.5-32.9-10.2-48H304v184H32V184zm64.7 272H56c-4.4 0-8-3.6-8-8v-8h48.7c-.9 5.3-.9 10.7 0 16zm47.3 24c-17.7 0-32-14.3-32-32s14.3-32 32-32 32 14.3 32 32-14.3 32-32 32zm0-80c-17.1 0-33 9.2-41.5 24H32v-40h272v40H185.5c-8.5-14.8-24.4-24-41.5-24zm208.7 56H191.3c1-5.3 1-10.7 0-16h161.4c-.9 5.3-.9 10.7 0 16zm47.3 24c-17.7 0-32-14.3-32-32s14.3-32 32-32 32 14.3 32 32-14.3 32-32 32zm80-32c0 4.4-3.6 8-8 8h-24.7c1-5.3 1-10.7 0-16H480v8zm0-24h-38.5c-13.2-22.9-42.5-30.8-65.4-17.6-7.3 4.2-13.4 10.3-17.6 17.6H320V280h16v48c0 13.2 10.8 24 24 24h80c22.1 0 40 17.9 40 40v32z" fill="url(#a)"/><linearGradient id="b" gradientUnits="userSpaceOnUse" x1="352" y1="368" x2="384" y2="368"><stop offset="0" stop-color="#3fab53"/><stop offset="1" stop-color="#48e364"/></linearGradient><path d="M360 376h16c4.4 0 8-3.6 8-8s-3.6-8-8-8h-16c-4.4 0-8 3.6-8 8s3.6 8 8 8z" fill="url(#b)"/><linearGradient id="c" gradientUnits="userSpaceOnUse" x1="144" y1="72" x2="192" y2="72"><stop offset="0" stop-color="#3fab53"/><stop offset="1" stop-color="#48e364"/></linearGradient><path d="M168 96c13.3 0 24-10.7 24-24s-10.7-24-24-24-24 10.7-24 24 10.7 24 24 24zm0-32c4.4 0 8 3.6 8 8s-3.6 8-8 8-8-3.6-8-8 3.6-8 8-8z" fill="url(#c)"/></svg>