<svg xmlns="http://www.w3.org/2000/svg" viewBox="0 0 512 512"><linearGradient id="a" gradientUnits="userSpaceOnUse" x1="0" y1="256" x2="512.001" y2="256"><stop offset="0" stop-color="#3fab53"/><stop offset="1" stop-color="#48e364"/></linearGradient><path d="M500.3 419.9h-38.5v-224l4.8-12.1 39.1-15.4c3.8-1.5 6.3-5.2 6.3-9.3s-2.5-7.8-6.3-9.3l-39.1-15.4-4.8-12.1V29.8c0-5.5-4.5-10-10-10H55c-5.5 0-10 4.5-10 10v390.1H10c-5.5 0-10 4.5-10 10v52.3c0 5.5 4.5 10 10 10h490.3c5.5 0 10-4.5 10-10v-52.3c0-5.5-4.5-10-10-10zm-97.4 0v-61.2l11.5-29.1 27.4-10.8v101.1h-38.9zm-279 0V269.3h119.5v150.5H123.9zM263.4 98.8h119.5v49.1l-4.9 1.9c-3.8 1.5-6.3 5.2-6.3 9.3s2.5 7.8 6.3 9.3l4.9 1.9v79H263.4V98.8zm178.4 198.6l-27.4-10.8-11.5-29.1v-79.2l14.2 5.6 15.4 39.1c1.5 3.8 5.2 6.3 9.3 6.3v68.1zm-44.4 20.8l-4.5 11.4-4.5-11.4c-1-2.6-3.1-4.6-5.6-5.6l-11.4-4.5 11.4-4.5c2.6-1 4.6-3.1 5.6-5.6l4.5-11.4 4.5 11.4c1 2.6 3.1 4.6 5.6 5.6l11.4 4.5-11.4 4.5c-2.5 1-4.6 3-5.6 5.6zm-154-68.9H123.9V98.8h119.5v150.5zm20 20h114.8l-6.8 17.2-30.9 12.2c-3.8 1.5-6.3 5.2-6.3 9.3s2.5 7.8 6.3 9.3l30.9 12.2 11.5 29.1v61.2H263.4V269.3zm211.3-110.2l-19.6 7.7c-2.6 1-4.6 3.1-5.6 5.6l-7.7 19.6-7.7-19.6c-1-2.6-3.1-4.6-5.6-5.6l-19.6-7.7 19.6-7.7c2.6-1 4.6-3.1 5.6-5.6l7.7-19.6 7.7 19.6c1 2.6 3.1 4.6 5.6 5.6l19.6 7.7zM65 39.8h376.8V89c-4.1 0-7.8 2.5-9.3 6.3l-15.4 39.1-14.2 5.6V88.8c0-5.5-4.5-10-10-10h-279c-5.5 0-10 4.5-10 10v331.1H65V39.8zm425.3 432.4H20v-32.3h470.3v32.3z" fill="url(#a)"/></svg>