<svg xmlns="http://www.w3.org/2000/svg" viewBox="0 0 512 512"><linearGradient id="a" gradientUnits="userSpaceOnUse" x1="49.703" y1="405.096" x2="164.098" y2="405.096"><stop offset="0" stop-color="#3fab53"/><stop offset="1" stop-color="#48e364"/></linearGradient><path d="M49.7 405.1c0 31.5 25.7 57.2 57.2 57.2s57.2-25.7 57.2-57.2-25.7-57.2-57.2-57.2-57.2 25.7-57.2 57.2zm99.4 0c0 23.3-18.9 42.2-42.2 42.2-23.3 0-42.2-18.9-42.2-42.2 0-23.3 18.9-42.2 42.2-42.2 23.3 0 42.2 18.9 42.2 42.2z" fill="url(#a)"/><linearGradient id="b" gradientUnits="userSpaceOnUse" x1="82.832" y1="400.957" x2="130.965" y2="400.957"><stop offset="0" stop-color="#3fab53"/><stop offset="1" stop-color="#48e364"/></linearGradient><path d="M99.4 380.3v2c-9.6 3.2-16.6 12.2-16.6 22.9 0 13.3 10.8 24.1 24.1 24.1s24.1-10.8 24.1-24.1c0-10.7-7-19.7-16.6-22.9v-2c0-4.1-3.4-7.5-7.5-7.5s-7.5 3.3-7.5 7.5zm16.6 24.8c0 5-4.1 9.1-9.1 9.1s-9.1-4.1-9.1-9.1 4.1-9.1 9.1-9.1 9.1 4.1 9.1 9.1z" fill="url(#b)"/><linearGradient id="c" gradientUnits="userSpaceOnUse" x1="33.133" y1="173.166" x2="180.668" y2="173.166"><stop offset="0" stop-color="#3fab53"/><stop offset="1" stop-color="#48e364"/></linearGradient><path d="M180.7 305.7V40.6c0-4.1-3.4-7.5-7.5-7.5H40.6c-4.1 0-7.5 3.4-7.5 7.5v265.1c0 4.1 3.4 7.5 7.5 7.5h132.5c4.2 0 7.6-3.4 7.6-7.5zm-15-7.5H48.1v-73.4h117.5v73.4zm0-88.4H48.1v-73.4h117.5v73.4zm0-88.3H48.1V48.1h117.5v73.4z" fill="url(#c)"/><linearGradient id="d" gradientUnits="userSpaceOnUse" x1="0" y1="256" x2="512" y2="256"><stop offset="0" stop-color="#3fab53"/><stop offset="1" stop-color="#48e364"/></linearGradient><path d="M471.4 298.2H365l75.2-75.2c7.7-7.7 11.9-17.9 11.9-28.7 0-10.9-4.2-21.1-11.9-28.7l-93.7-93.7C330.7 56 304.9 56 289 71.8L213.8 147v-46.5c0-4.1-3.4-7.5-7.5-7.5s-7.5 3.4-7.5 7.5V405.1c0 50.6-41.1 91.7-91.6 91.9h-.3-.1C56.2 497 15 455.8 15 405.1V40.6C15 26.5 26.5 15 40.6 15h132.5c14.1 0 25.6 11.5 25.6 25.6v29.2c0 4.1 3.4 7.5 7.5 7.5s7.5-3.4 7.5-7.5V40.6c0-22.4-18.2-40.6-40.6-40.6H40.6C18.2 0 0 18.2 0 40.6v364.5C0 464 48 512 106.9 512h364.5c22.4 0 40.6-18.2 40.6-40.6V338.8c0-22.4-18.2-40.6-40.6-40.6zM213.8 405.1V382l4.9 4.9c1.5 1.5 3.4 2.2 5.3 2.2s3.8-.7 5.3-2.2l62.5-62.5 62.5-62.5 62.5-62.5c1.4-1.4 2.2-3.3 2.2-5.3s-.8-3.9-2.2-5.3l-93.7-93.7c-2.9-2.9-7.7-2.9-10.6 0l-98.7 98.7v-25.6l85.8-85.8c10-10 26.3-10 36.3 0l93.7 93.7c4.8 4.8 7.5 11.3 7.5 18.1 0 6.8-2.7 13.3-7.5 18.1L210.5 431.5c2.2-8.5 3.3-17.3 3.3-26.4zm124.6-148.4l-51.9 51.9-72.7-72.7v-20.8l41.5-41.5 83.1 83.1zM265.9 163l51.9-51.9 83.1 83.1-51.9 51.9-83.1-83.1zm10 156.2L224 371.1l-10.2-10.2V257.1l62.1 62.1zm40.9 27.1h58.7v117.5h-73.4V361l14.7-14.7zM287.2 376v87.8h-73.4v-14.5l73.4-73.3zM497 471.4c0 14.1-11.5 25.6-25.6 25.6H161.5c7.4-4.4 14.2-9.7 20.4-15.7.2-.2.5-.4.7-.6l16.3-16.3v7c0 4.1 3.4 7.5 7.5 7.5h265.1c4.1 0 7.5-3.4 7.5-7.5V338.8c0-4.1-3.4-7.5-7.5-7.5H331.8l18.1-18.1h121.4c14.1 0 25.6 11.5 25.6 25.6v132.6zm-106.5-7.5V346.3h73.4v117.5h-73.4z" fill="url(#d)"/></svg>