<svg xmlns="http://www.w3.org/2000/svg" viewBox="0 0 437 437"><linearGradient id="a" gradientUnits="userSpaceOnUse" x1="75.96" y1="218.52" x2="224.2" y2="218.52"><stop offset="0" stop-color="#3fab53"/><stop offset="1" stop-color="#48e364"/></linearGradient><path d="M207.6 0H92.5C83.4 0 76 7.4 76 16.6v403.9c0 9.1 7.4 16.6 16.6 16.6h115.1c9.1 0 16.6-7.4 16.6-16.6v-404C224.2 7.4 216.8 0 207.6 0zm.6 34.5h-29.4c-4.4 0-8 3.6-8 8s3.6 8 8 8h29.3v16h-29.3c-4.4 0-8 3.6-8 8s3.6 8 8 8h29.3v16h-54.8c-4.4 0-8 3.6-8 8s3.6 8 8 8h54.9v16h-29.4c-4.4 0-8 3.6-8 8s3.6 8 8 8h29.3v16h-29.3c-4.4 0-8 3.6-8 8s3.6 8 8 8h29.3v16h-54.8c-4.4 0-8 3.6-8 8s3.6 8 8 8h54.9v16h-29.4c-4.4 0-8 3.6-8 8s3.6 8 8 8h29.3v16h-29.3c-4.4 0-8 3.6-8 8s3.6 8 8 8h29.3v16h-54.8c-4.4 0-8 3.6-8 8s3.6 8 8 8h54.9v16h-29.4c-4.4 0-8 3.6-8 8s3.6 8 8 8h29.3v16h-29.3c-4.4 0-8 3.6-8 8s3.6 8 8 8h29.3v16h-54.8c-4.4 0-8 3.6-8 8s3.6 8 8 8h54.9v17.9l-.6.6-115.6-.5.6-404.5 115.6.6v17.9z" fill="url(#a)"/><linearGradient id="b" gradientUnits="userSpaceOnUse" x1="259.32" y1="227.961" x2="361.08" y2="227.961"><stop offset="0" stop-color="#3fab53"/><stop offset="1" stop-color="#48e364"/></linearGradient><path d="M361.1 59.8c0-8.9-7.1-16.1-15.9-16.5h-69.3c-9.1 0-16.6 7.4-16.6 16.6v199.3c.1.8.1 1.6 0 2.3l43.2 145.3c1.2 4.2 5.7 6.7 9.9 5.4 2.6-.8 4.7-2.8 5.4-5.4L361 261.5c-.1-.8-.1-1.6 0-2.3V59.8zm-85.7 59.8h26.8v131.6l-26.8.2V119.6zm35.1 257l-11.7-38.7c1.6.5 3.1 1 4.6 1.7 4.8 2.4 10.1 3.7 15.4 3.8h1.3l-9.6 33.2zm15-50.3c-5.1 2.1-10.8 1.6-15.5-1.2-4.9-2.6-10.5-3.7-16-3.2l-16-54.6h64.9l-17.4 59zm20.2-75.1h-27.2V119.6h27.2v131.6zm0-147.6h-70v-44l70 .5v43.5z" fill="url(#b)"/></svg>