<svg xmlns="http://www.w3.org/2000/svg" viewBox="0 0 512 512"><linearGradient id="a" gradientUnits="userSpaceOnUse" x1="0" y1="256" x2="512" y2="256"><stop offset="0" stop-color="#3fab53"/><stop offset="1" stop-color="#48e364"/></linearGradient><path d="M457.8 24.6H54.2C24.3 24.6 0 48.9 0 78.8v256C0 364.7 24.3 389 54.2 389H185l-15.8 78.8h-51c-5.4 0-9.8 4.4-9.8 9.8s4.4 9.8 9.8 9.8h275.7c5.4 0 9.8-4.4 9.8-9.8s-4.4-9.8-9.8-9.8h-51L327.1 389h130.8c29.9 0 54.2-24.3 54.2-54.2v-256c-.1-29.9-24.4-54.2-54.3-54.2zM19.7 270.8h59.1c5.4 0 9.8-4.4 9.8-9.8s-4.4-9.8-9.8-9.8H19.7V78.8c0-19 15.5-34.5 34.5-34.5h403.7c19 0 34.5 15.5 34.5 34.5v211.7H19.7v-19.7zm169.5 196.9l15.8-78.8h102l15.8 78.8H189.2zm268.6-98.5H54.2c-19 0-34.5-15.5-34.5-34.5v-24.6h472.6v24.6c0 19.1-15.5 34.5-34.5 34.5z" fill="url(#a)"/><linearGradient id="b" gradientUnits="userSpaceOnUse" x1="236.308" y1="339.692" x2="275.692" y2="339.692"><stop offset="0" stop-color="#3fab53"/><stop offset="1" stop-color="#48e364"/></linearGradient><circle cx="256" cy="339.7" r="19.7" fill="url(#b)"/><linearGradient id="c" gradientUnits="userSpaceOnUse" x1="225.811" y1="194.039" x2="339.495" y2="194.039"><stop offset="0" stop-color="#3fab53"/><stop offset="1" stop-color="#48e364"/></linearGradient><path d="M315.7 192.3l17.4-17.4c2.5-2.5 3.5-6.2 2.5-9.7-1-3.4-3.8-6.1-7.3-6.9l-90.5-20.9c-3.3-.8-6.8.2-9.2 2.6-2.4 2.4-3.4 5.9-2.6 9.2l20.9 90.5c.8 3.5 3.4 6.3 6.9 7.3 3.4 1 7.1 0 9.7-2.5l17.4-17.4 20.9 20.9c1.9 1.9 4.4 2.9 7 2.9 2.5 0 5-1 7-2.9l20.9-20.9c3.8-3.8 3.8-10.1 0-13.9l-21-20.9zm-6.9 34.8l-20.9-20.9c-1.9-1.9-4.4-2.9-7-2.9-2.5 0-5 1-7 2.9L262.1 218l-13.3-57.8 57.8 13.3-11.8 11.8c-3.8 3.8-3.8 10.1 0 13.9l20.9 20.9-6.9 7z" fill="url(#c)"/><linearGradient id="d" gradientUnits="userSpaceOnUse" x1="188.816" y1="114.971" x2="218.355" y2="114.971"><stop offset="0" stop-color="#3fab53"/><stop offset="1" stop-color="#48e364"/></linearGradient><path d="M205.6 103.1c-3.8-3.8-10.1-3.8-13.9 0-3.8 3.8-3.8 10.1 0 13.9l9.8 9.8c1.9 1.9 4.4 2.9 7 2.9 2.5 0 5-1 7-2.9 3.8-3.8 3.8-10.1 0-13.9l-9.9-9.8z" fill="url(#d)"/><linearGradient id="e" gradientUnits="userSpaceOnUse" x1="172.504" y1="149.433" x2="206.12" y2="149.433"><stop offset="0" stop-color="#3fab53"/><stop offset="1" stop-color="#48e364"/></linearGradient><path d="M206.1 149.4c0-5.4-4.4-9.8-9.8-9.8h-13.9c-5.4 0-9.8 4.4-9.8 9.8s4.4 9.8 9.8 9.8h13.9c5.4.1 9.8-4.3 9.8-9.8z" fill="url(#e)"/><linearGradient id="f" gradientUnits="userSpaceOnUse" x1="188.817" y1="183.894" x2="218.355" y2="183.894"><stop offset="0" stop-color="#3fab53"/><stop offset="1" stop-color="#48e364"/></linearGradient><path d="M201.5 172l-9.8 9.8c-3.8 3.8-3.8 10.1 0 13.9 1.9 1.9 4.4 2.9 7 2.9 2.5 0 5-1 7-2.9l9.8-9.8c3.8-3.8 3.8-10.1 0-13.9-3.9-3.8-10.1-3.8-14 0z" fill="url(#f)"/><linearGradient id="g" gradientUnits="userSpaceOnUse" x1="257.74" y1="114.971" x2="287.279" y2="114.971"><stop offset="0" stop-color="#3fab53"/><stop offset="1" stop-color="#48e364"/></linearGradient><path d="M267.6 129.7c2.5 0 5-1 7-2.9l9.8-9.8c3.8-3.8 3.8-10.1 0-13.9-3.8-3.8-10.1-3.8-13.9 0l-9.8 9.8c-3.8 3.8-3.8 10.1 0 13.9 1.8 2 4.4 2.9 6.9 2.9z" fill="url(#g)"/><linearGradient id="h" gradientUnits="userSpaceOnUse" x1="228.203" y1="100.696" x2="247.895" y2="100.696"><stop offset="0" stop-color="#3fab53"/><stop offset="1" stop-color="#48e364"/></linearGradient><path d="M238 117.5c5.4 0 9.8-4.4 9.8-9.8v-14c0-5.4-4.4-9.8-9.8-9.8s-9.8 4.4-9.8 9.8v13.9c0 5.5 4.4 9.9 9.8 9.9z" fill="url(#h)"/><linearGradient id="i" gradientUnits="userSpaceOnUse" x1="98.462" y1="260.925" x2="118.154" y2="260.925"><stop offset="0" stop-color="#3fab53"/><stop offset="1" stop-color="#48e364"/></linearGradient><path d="M117.4 257.2c-.2-.6-.6-1.2-.9-1.7l-1.2-1.5c-.4-.5-1-.9-1.5-1.2-.5-.4-1.1-.7-1.7-.9l-1.8-.6c-1.3-.3-2.6-.3-3.8 0-.6.1-1.3.3-1.8.6-.6.2-1.2.6-1.7.9l-1.5 1.2c-.5.5-.9 1-1.2 1.5-.4.5-.7 1.1-.9 1.7-.2.6-.4 1.2-.6 1.9-.1.6-.2 1.3-.2 1.9s.1 1.3.2 1.9c.1.6.3 1.3.6 1.8.2.6.6 1.2.9 1.7l1.2 1.5c.4.5 1 .9 1.5 1.2.5.4 1.1.7 1.7.9l1.8.6c.6.2 1.3.2 1.9.2.6 0 1.3-.1 1.9-.2.6-.1 1.3-.3 1.8-.6.6-.2 1.2-.6 1.7-.9l1.5-1.2c.5-.4.9-1 1.2-1.5.4-.5.7-1.1.9-1.7l.6-1.8c.1-.6.2-1.3.2-1.9s-.1-1.3-.2-1.9c-.2-.7-.4-1.3-.6-1.9z" fill="url(#i)"/></svg>