<svg width="24" height="24" fill="none" xmlns="http://www.w3.org/2000/svg"><ellipse cx="13" cy="11.142" rx="8" ry="8.235" fill="#fff"/><path d="M12 .893C5.881.893.922 5.698.922 11.626.922 17.554 5.882 22.36 12 22.36c6.119 0 11.078-4.806 11.078-10.734S18.118.893 12 .893Zm3.633 11.331c-.445-.007-.852.006-1.37-.016-.083-.004-1.43.016-1.426.04.098.58-.043 1.197-.034 1.784.005.342.108 3.436.06 4.578l-2.669.023c-.011-.972.038-1.971-.006-3.253-.008-.264-.017-3.037-.049-3.183l-1.731.011s-.008-1.023-.008-1.37v-1.02s1.377-.074 1.773-.107c0 0 .04-1.298.095-1.719.063-.48.069-.966.36-1.39.534-.779 1.06-1.465 2.041-1.671.371-.079 2.818-.545 2.909-.162l-.056 2.309c-.665 0-1.463-.065-2.142.423-.378.273-.482.5-.52.948-.023.26-.028 1.316-.028 1.316.358.05.889.027 1.274 0 .436-.032 1.553.08 1.553.08 0 .698-.029 2.31-.026 2.38Z" fill="#3A5897"/></svg>