<svg width="22" height="22" fill="none" xmlns="http://www.w3.org/2000/svg"><g clip-path="url(#a)"><path d="M11 0c6.05 0 11 4.95 11 11s-4.95 11-11 11S0 17.05 0 11 4.95 0 11 0Z" fill="url(#b)"/><path d="M14.231 4.125H7.7c-1.994 0-3.575 1.65-3.575 3.713v6.324c0 1.994 1.581 3.644 3.644 3.713H14.3c1.994 0 3.644-1.65 3.644-3.713V7.837c-.069-2.062-1.65-3.712-3.713-3.712Zm2.406 9.969c0 1.375-1.1 2.543-2.543 2.543H7.838c-1.375 0-2.544-1.168-2.476-2.543V7.906c0-1.375 1.1-2.543 2.476-2.543h6.256c1.375 0 2.543 1.168 2.543 2.543v6.188Z" fill="#fff"/><path d="M11 7.494c-1.925-.069-3.575 1.512-3.575 3.437-.069 1.925 1.513 3.575 3.438 3.575 1.925 0 3.575-1.512 3.575-3.437V11c.068-1.925-1.513-3.506-3.438-3.506Zm0 5.775a2.337 2.337 0 0 1-2.337-2.2c0-1.238.962-2.269 2.2-2.338 1.237-.068 2.268.963 2.337 2.2v.07c.069 1.237-.962 2.268-2.2 2.268Zm3.644-6.807c.412 0 .756.344.756.825 0 .482-.344.825-.756.825-.413 0-.757-.343-.757-.825 0-.48.344-.825.757-.825Z" fill="#fff"/></g><defs><linearGradient id="b" x1="5.498" y1="20.529" x2="16.5" y2="1.473" gradientUnits="userSpaceOnUse"><stop stop-color="#FEC053"/><stop offset=".327" stop-color="#F2203E"/><stop offset=".648" stop-color="#B729A8"/><stop offset="1" stop-color="#5342D6"/></linearGradient><clipPath id="a"><path fill="#fff" d="M0 0h22v22H0z"/></clipPath></defs></svg>