<svg width="22" height="22" fill="none" xmlns="http://www.w3.org/2000/svg"><g clip-path="url(#a)"><path d="M11 22c6.075 0 11-4.925 11-11S17.075 0 11 0 0 4.925 0 11s4.925 11 11 11Z" fill="url(#b)"/><path d="m16.354 6.33-1.964 9.903s-.275.688-1.031.357l-4.533-3.476-1.65-.795-2.776-.933s-.425-.15-.468-.48c-.043-.332.48-.508.48-.508l11.035-4.327c0-.004.907-.404.907.258Z" fill="#fff"/><path d="M8.473 16.122s-.133-.013-.296-.533c-.163-.52-1.001-3.27-1.001-3.27l6.664-4.232s.387-.233.37 0c0 0 .068.042-.138.232-.206.193-5.233 4.713-5.233 4.713" fill="#D2E4F0"/><path d="M10.562 14.446 8.77 16.083s-.142.108-.292.039l.343-3.038" fill="#B5CFE4"/></g><defs><linearGradient id="b" x1="11" y1="0" x2="11" y2="21.92" gradientUnits="userSpaceOnUse"><stop stop-color="#41BCE7"/><stop offset="1" stop-color="#22A6DC"/></linearGradient><clipPath id="a"><path fill="#fff" d="M0 0h22v22H0z"/></clipPath></defs></svg>