<svg version="1.1" id="Слой_1" xmlns="http://www.w3.org/2000/svg" x="0" y="0" viewBox="0 0 682 682" xml:space="preserve"><style>.st1{fill:red}</style><g opacity=".39"><path class="st1" d="M147.1 156.9c3.3 0 6.5-1.3 8.8-3.7 2.3-2.3 3.7-5.5 3.7-8.8 0-3.3-1.3-6.5-3.7-8.8-2.3-2.3-5.5-3.7-8.8-3.7s-6.5 1.3-8.8 3.7c-2.3 2.3-3.7 5.5-3.7 8.8 0 3.3 1.3 6.5 3.7 8.8 2.3 2.4 5.5 3.7 8.8 3.7zM193.9 156.9h83c6.9 0 12.5-5.6 12.5-12.5s-5.6-12.5-12.5-12.5h-83c-6.9 0-12.5 5.6-12.5 12.5s5.6 12.5 12.5 12.5zM147.1 236.9H277c6.9 0 12.5-5.6 12.5-12.5s-5.6-12.5-12.5-12.5H147.1c-6.9 0-12.5 5.6-12.5 12.5s5.6 12.5 12.5 12.5zM147.1 316.8H277c6.9 0 12.5-5.6 12.5-12.5s-5.6-12.5-12.5-12.5H147.1c-6.9 0-12.5 5.6-12.5 12.5s5.6 12.5 12.5 12.5zM147.1 396.7H277c6.9 0 12.5-5.6 12.5-12.5s-5.6-12.5-12.5-12.5H147.1c-6.9 0-12.5 5.6-12.5 12.5s5.6 12.5 12.5 12.5zM289.5 464.1c0-6.9-5.6-12.5-12.5-12.5H147.1c-6.9 0-12.5 5.6-12.5 12.5s5.6 12.5 12.5 12.5H277c6.9 0 12.5-5.6 12.5-12.5zM391.9 144.4c0 6.9 5.6 12.5 12.5 12.5h129.9c6.9 0 12.5-5.6 12.5-12.5s-5.6-12.5-12.5-12.5H404.4c-6.9.1-12.5 5.6-12.5 12.5zM534.2 211.9H404.4c-6.9 0-12.5 5.6-12.5 12.5s5.6 12.5 12.5 12.5h129.9c6.9 0 12.5-5.6 12.5-12.5-.1-6.9-5.7-12.5-12.6-12.5zM534.2 291.8H404.4c-6.9 0-12.5 5.6-12.5 12.5s5.6 12.5 12.5 12.5h129.9c6.9 0 12.5-5.6 12.5-12.5-.1-6.9-5.7-12.5-12.6-12.5zM534.2 371.7H404.4c-6.9 0-12.5 5.6-12.5 12.5s5.6 12.5 12.5 12.5h129.9c6.9 0 12.5-5.6 12.5-12.5-.1-6.9-5.7-12.5-12.6-12.5zM534.2 451.6H404.4c-6.9 0-12.5 5.6-12.5 12.5s5.6 12.5 12.5 12.5h129.9c6.9 0 12.5-5.6 12.5-12.5-.1-6.9-5.7-12.5-12.6-12.5z"/><path class="st1" d="M647.9 135.7h-37.5V80.8c0-6.9-5.6-12.5-12.5-12.5H415.6c-30 0-57.5 14.2-75 37.5-17.4-23.3-44.9-37.5-75-37.5H83.4c-6.9 0-12.5 5.6-12.5 12.5v54.9H33.5c-6.9 0-12.5 5.6-12.5 12.5v447.1c0 6.9 5.6 12.5 12.5 12.5h431.2c6.9 0 12.5-5.6 12.5-12.5s-5.6-12.5-12.5-12.5H352.1v-.1-.1c10.7-25.7 35.6-42.3 63.4-42.3h182.3c6.9 0 12.5-5.6 12.5-12.5V160.7h25v422.1h-68.6c-6.9 0-12.5 5.6-12.5 12.5s5.6 12.5 12.5 12.5h81.1c6.9 0 12.5-5.6 12.5-12.5V148.2c.1-6.9-5.5-12.5-12.4-12.5zm-552-42.5h169.8c27 0 51.3 15.6 62.5 40.1v405.8a93.77 93.77 0 00-62.5-23.8H95.9V93.2zM46 582.8V160.7h25v367.1c0 6.9 5.6 12.5 12.5 12.5h182.3c27.8 0 52.7 16.6 63.4 42.3v.2H46zm539.4-67.5H415.6c-23.6 0-45.7 8.8-62.5 23.8V133.3c11.2-24.4 35.5-40.1 62.5-40.1h169.8v422.1z"/><path class="st1" d="M516.1 582.8c-3.3 0-6.5 1.3-8.8 3.7-2.3 2.3-3.7 5.5-3.7 8.8 0 3.3 1.3 6.5 3.7 8.8 2.3 2.3 5.5 3.7 8.8 3.7s6.5-1.3 8.8-3.7c2.3-2.3 3.7-5.5 3.7-8.8 0-3.3-1.3-6.5-3.7-8.8-2.3-2.4-5.5-3.7-8.8-3.7z"/></g></svg>