<svg version="1.1" id="Слой_1" xmlns="http://www.w3.org/2000/svg" x="0" y="0" viewBox="0 0 375 512" xml:space="preserve"><style>.st1{fill:red}</style><g opacity=".39"><path class="st1" d="M375 37.5C375 16.8 358.2 0 337.5 0h-300C16.8 0 0 16.8 0 37.5v96c0 8.3 6.7 15 15 15h92.5c4.1 0 7.5-3.4 7.5-7.5s-3.4-7.5-7.5-7.5H15v-96C15 25.1 25.1 15 37.5 15h300c12.4 0 22.5 10.1 22.5 22.5v96h-92.5c-4.1 0-7.5 3.4-7.5 7.5s3.4 7.5 7.5 7.5H360v326c0 12.4-10.1 22.5-22.5 22.5h-300C25.1 497 15 486.9 15 474.5V170c0-4.1-3.4-7.5-7.5-7.5S0 165.9 0 170v304.5C0 495.2 16.8 512 37.5 512h300c20.7 0 37.5-16.8 37.5-37.5V148c0-2.3-1-4.4-2.8-5.8 1.8-2.5 2.8-5.6 2.8-8.7v-96z"/><path class="st1" d="M53.5 222.9h22c12.4 0 22.5-10.1 22.5-22.5V181c0-12.4-10.1-22.5-22.5-22.5h-22C41.1 158.5 31 168.6 31 181v19.4c0 12.4 10.1 22.5 22.5 22.5zM46 181c0-4.1 3.4-7.5 7.5-7.5h22c4.1 0 7.5 3.4 7.5 7.5v19.4c0 4.1-3.4 7.5-7.5 7.5h-22c-4.1 0-7.5-3.4-7.5-7.5V181zM113 200.4c0 12.4 10.1 22.5 22.5 22.5h22c12.4 0 22.5-10.1 22.5-22.5V181c0-12.4-10.1-22.5-22.5-22.5h-22c-12.4 0-22.5 10.1-22.5 22.5v19.4zm15-19.4c0-4.1 3.4-7.5 7.5-7.5h22c4.1 0 7.5 3.4 7.5 7.5v19.4c0 4.1-3.4 7.5-7.5 7.5h-22c-4.1 0-7.5-3.4-7.5-7.5V181zM262 181c0-12.4-10.1-22.5-22.5-22.5h-22c-12.4 0-22.5 10.1-22.5 22.5v19.4c0 12.4 10.1 22.5 22.5 22.5h22c12.4 0 22.5-10.1 22.5-22.5V181zm-15 19.4c0 4.1-3.4 7.5-7.5 7.5h-22c-4.1 0-7.5-3.4-7.5-7.5V181c0-4.1 3.4-7.5 7.5-7.5h22c4.1 0 7.5 3.4 7.5 7.5v19.4zM31 279.8c0 12.4 10.1 22.5 22.5 22.5h22c12.4 0 22.5-10.1 22.5-22.5v-19.4c0-12.4-10.1-22.5-22.5-22.5h-22C41.1 237.9 31 248 31 260.4v19.4zm15-19.4c0-4.1 3.4-7.5 7.5-7.5h22c4.1 0 7.5 3.4 7.5 7.5v19.4c0 4.1-3.4 7.5-7.5 7.5h-22c-4.1 0-7.5-3.4-7.5-7.5v-19.4zM113 279.8c0 12.4 10.1 22.5 22.5 22.5h22c12.4 0 22.5-10.1 22.5-22.5v-19.4c0-12.4-10.1-22.5-22.5-22.5h-22c-12.4 0-22.5 10.1-22.5 22.5v19.4zm15-19.4c0-4.1 3.4-7.5 7.5-7.5h22c4.1 0 7.5 3.4 7.5 7.5v19.4c0 4.1-3.4 7.5-7.5 7.5h-22c-4.1 0-7.5-3.4-7.5-7.5v-19.4zM31 359.1c0 12.4 10.1 22.5 22.5 22.5h22c12.4 0 22.5-10.1 22.5-22.5v-19.4c0-12.4-10.1-22.5-22.5-22.5h-22c-12.4 0-22.5 10.1-22.5 22.5v19.4zm15-19.3c0-4.1 3.4-7.5 7.5-7.5h22c4.1 0 7.5 3.4 7.5 7.5v19.4c0 4.1-3.4 7.5-7.5 7.5h-22c-4.1 0-7.5-3.4-7.5-7.5v-19.4zM113 359.1c0 12.4 10.1 22.5 22.5 22.5h22c12.4 0 22.5-10.1 22.5-22.5v-19.4c0-12.4-10.1-22.5-22.5-22.5h-22c-12.4 0-22.5 10.1-22.5 22.5v19.4zm15-19.3c0-4.1 3.4-7.5 7.5-7.5h22c4.1 0 7.5 3.4 7.5 7.5v19.4c0 4.1-3.4 7.5-7.5 7.5h-22c-4.1 0-7.5-3.4-7.5-7.5v-19.4zM113 438.5c0 12.4 10.1 22.5 22.5 22.5h22c12.4 0 22.5-10.1 22.5-22.5v-19.4c0-12.4-10.1-22.5-22.5-22.5h-22c-12.4 0-22.5 10.1-22.5 22.5v19.4zm15-19.4c0-4.1 3.4-7.5 7.5-7.5h22c4.1 0 7.5 3.4 7.5 7.5v19.4c0 4.1-3.4 7.5-7.5 7.5h-22c-4.1 0-7.5-3.4-7.5-7.5v-19.4zM262 260.4c0-12.4-10.1-22.5-22.5-22.5h-22c-12.4 0-22.5 10.1-22.5 22.5v19.4c0 12.4 10.1 22.5 22.5 22.5h22c12.4 0 22.5-10.1 22.5-22.5v-19.4zm-15 19.4c0 4.1-3.4 7.5-7.5 7.5h-22c-4.1 0-7.5-3.4-7.5-7.5v-19.4c0-4.1 3.4-7.5 7.5-7.5h22c4.1 0 7.5 3.4 7.5 7.5v19.4zM262 339.8c0-12.4-10.1-22.5-22.5-22.5h-22c-12.4 0-22.5 10.1-22.5 22.5v19.4c0 12.4 10.1 22.5 22.5 22.5h22c12.4 0 22.5-10.1 22.5-22.5v-19.4zm-15 19.3c0 4.1-3.4 7.5-7.5 7.5h-22c-4.1 0-7.5-3.4-7.5-7.5v-19.4c0-4.1 3.4-7.5 7.5-7.5h22c4.1 0 7.5 3.4 7.5 7.5v19.4zM299.5 222.9h22c12.4 0 22.5-10.1 22.5-22.5V181c0-12.4-10.1-22.5-22.5-22.5h-22c-12.4 0-22.5 10.1-22.5 22.5v19.4c0 12.4 10.1 22.5 22.5 22.5zM292 181c0-4.1 3.4-7.5 7.5-7.5h22c4.1 0 7.5 3.4 7.5 7.5v19.4c0 4.1-3.4 7.5-7.5 7.5h-22c-4.1 0-7.5-3.4-7.5-7.5V181zM277 279.8c0 12.4 10.1 22.5 22.5 22.5h22c12.4 0 22.5-10.1 22.5-22.5v-19.4c0-12.4-10.1-22.5-22.5-22.5h-22c-12.4 0-22.5 10.1-22.5 22.5v19.4zm15-19.4c0-4.1 3.4-7.5 7.5-7.5h22c4.1 0 7.5 3.4 7.5 7.5v19.4c0 4.1-3.4 7.5-7.5 7.5h-22c-4.1 0-7.5-3.4-7.5-7.5v-19.4zM277 438.5c0 12.4 10.1 22.5 22.5 22.5h22c12.4 0 22.5-10.1 22.5-22.5v-99.4c0-12.4-10.1-22.5-22.5-22.5h-22c-12.4 0-22.5 10.1-22.5 22.5v99.4zm15-99.4c0-4.1 3.4-7.5 7.5-7.5h22c4.1 0 7.5 3.4 7.5 7.5v99.4c0 4.1-3.4 7.5-7.5 7.5h-22c-4.1 0-7.5-3.4-7.5-7.5v-99.4zM217.5 396.6c-12.4 0-22.5 10.1-22.5 22.5v19.4c0 12.4 10.1 22.5 22.5 22.5h22c12.4 0 22.5-10.1 22.5-22.5v-19.4c0-12.4-10.1-22.5-22.5-22.5h-22zm29.5 22.5v19.4c0 4.1-3.4 7.5-7.5 7.5h-22c-4.1 0-7.5-3.4-7.5-7.5v-19.4c0-4.1 3.4-7.5 7.5-7.5h22c4.1 0 7.5 3.4 7.5 7.5zM31 438.5c0 12.4 10.1 22.5 22.5 22.5h22c12.4 0 22.5-10.1 22.5-22.5v-19.4c0-12.4-10.1-22.5-22.5-22.5h-22c-12.4 0-22.5 10.1-22.5 22.5v19.4zm15-19.4c0-4.1 3.4-7.5 7.5-7.5h22c4.1 0 7.5 3.4 7.5 7.5v19.4c0 4.1-3.4 7.5-7.5 7.5h-22c-4.1 0-7.5-3.4-7.5-7.5v-19.4zM337.5 88.5V51.6c0-12.4-10.6-22.5-23-22.5h-254C48.1 29.1 38 39.2 38 51.6v36.9c0 12.4 10.1 22.5 22.5 22.5h254c12.4 0 23-10.1 23-22.5zM53 88.5V51.6c0-4.1 3.4-7.5 7.5-7.5h254c4.1 0 7.5 3.4 7.5 7.5v36.9c0 4.1-3.4 7.5-7.5 7.5h-254c-4.1 0-7.5-3.4-7.5-7.5z"/></g></svg>