<svg xmlns="http://www.w3.org/2000/svg" viewBox="0 0 512 512"><path d="M148 379.3c-22.4-1.1-21.9-32.6 0-33.7 62.2.2 226.1.1 290.3.1 17.5 0 32.6-11.9 36.5-29L511.2 159c2.1-9 0-18.4-5.8-25.6-5.8-7.3-14.4-11.5-23.6-11.5-25.8 0-244.8-1-357-1.4l-17.8-66c-4.3-15.8-18.7-26.8-35-26.8H15c-8.3 0-15 6.7-15 15s6.7 15 15 15h57c2.8 0 5.3 1.9 6 4.6l68.3 253.4c-12 .4-23.2 5.3-31.7 13.9-8.9 9-13.7 21-13.5 33.7.4 25.4 21.5 46 46.9 46h21.9c-3.3 6.8-5.1 14.5-5.1 22.5 0 29 23.6 52.5 52.5 52.5s52.5-23.6 52.5-52.5c0-8.1-1.8-15.7-5.1-22.5h94.8c-3.2 6.8-5.1 14.5-5.1 22.5 0 29 23.6 52.5 52.5 52.5 29 0 52.5-23.6 52.5-52.5 0-8.4-2-16.3-5.5-23.3 5.9-2 10.2-7.6 10.2-14.2 0-8.3-6.7-15-15-15H148zm91.9 52.5c0 12.4-10.1 22.5-22.5 22.5s-22.5-10.1-22.5-22.5 10.1-22.5 22.5-22.5 22.5 10.1 22.5 22.5zM407 454.4c-12.4 0-22.5-10.1-22.5-22.5 0-12.3 9.9-22.3 22.1-22.5h.7c12.2.2 22.1 10.2 22.1 22.5.1 12.4-10 22.5-22.4 22.5zM481.9 152c.1.1.1.2.1.3l-15.3 66.5h-52l8.8-67.1 58.2.2c.1-.1.1-.1.2.1zM327.2 315.7v-67h53.2l-8.8 67h-44.4zm-74.4 0l-8.9-67h53.3v67h-44.4zm-69.1 0c-3.7 0-6.9-2.5-7.9-6l-16.5-61h54.2l8.9 67h-38.7zm56.2-97l-9-67.8 66.3.3v67.6l-57.3-.1zm87.3 0v-67.4l66.1.3-8.9 67.2h-57.2zm-126.7-68l9 68h-58.3l-18.4-68.2 67.7.2zm237.8 165h-36.4l8.8-67h49l-14.1 61.2c-.8 3.4-3.8 5.8-7.3 5.8z" opacity=".39" fill="red"/></svg>