<svg xmlns="http://www.w3.org/2000/svg" viewBox="0 0 512 512"><path d="M145.3 297.3H199V496c0 8.8 7.1 16 16 16h85.5c8.9 0 16-7.2 16-16V297.3h50.9c8.1 0 14.9-6 15.9-14l10.6-85.3c1.2-9.5-6.3-18-15.9-18h-61.5c2.4-52.7-9.3-68.3 25-68.3 23.2-2.8 59.8 9 59.8-16V19.4c0-8-5.9-14.8-13.8-15.9-6.7-.9-33.2-3.5-66-3.5C172 0 202.8 165.8 199.1 180h-53.7c-8.8 0-16 7.2-16 16v85.3c-.1 8.9 7.1 16 15.9 16zm16-85.3H215c8.8 0 16-7.2 16-16v-67.2c0-61.5 33-96.8 90.5-96.8 18.7 0 36 .9 47.8 1.9v45.8c-8.6 4.4-84.8-18.9-84.8 57.5V196c0 8.8 7.2 16 16 16h59.4l-6.7 53.3h-52.8c-8.8 0-16 7.2-16 16V480H231V281.3c0-8.8-7.2-16-16-16h-53.7V212z" opacity=".39" fill="red"/></svg>