<svg version="1.1" id="Capa_1" xmlns="http://www.w3.org/2000/svg" x="0" y="0" viewBox="0 0 512 512" xml:space="preserve"><style>.st1{fill:red}</style><g opacity=".39"><path class="st1" d="M358.5 398.8c-11.9-4.2-25.4-7.6-39.9-10.2 9.3-11 19.3-23.1 29.3-36.1C403 280.8 431 221.1 431 175 431 78.5 352.5 0 256 0S81 78.5 81 175c0 46.3 28 106.1 83.1 177.7 9.9 12.9 19.9 25 29.2 35.9-14.5 2.5-28 5.9-39.8 10.1-41.6 14.9-50.3 34.8-50.3 49s8.7 34.1 50.3 49c27.6 9.9 64 15.3 102.5 15.3s74.9-5.4 102.5-15.3c41.6-14.9 50.3-34.8 50.3-49s-8.7-34.1-50.3-48.9zM111 175c0-79.9 65-145 145-145 79.9 0 145 65 145 145 0 38.7-26.5 93.6-76.7 158.9-26.8 34.9-54 64.2-68.3 79.2-14.3-14.8-41.3-43.9-68.1-78.7C137.6 269.1 111 214 111 175zm237.4 293.4C324 477.2 291.1 482 256 482s-68-4.8-92.4-13.6c-22.2-7.9-30.4-16.9-30.4-20.7s8.3-12.8 30.4-20.7c15.1-5.4 33.4-9.3 53.5-11.5 16.3 17.8 27.6 28.8 28.4 29.7l10.5 10.2 10.5-10.2c.9-.9 12.1-11.9 28.3-29.7 20.1 2.2 38.5 6.1 53.6 11.5 22.2 7.9 30.4 16.9 30.4 20.7s-8.2 12.8-30.4 20.7z"/><path class="st1" d="M350.6 175c0-52.2-42.5-94.6-94.6-94.6-52.2 0-94.6 42.5-94.6 94.6s42.5 94.6 94.6 94.6c52.2 0 94.6-42.4 94.6-94.6zm-159.2 0c0-35.6 29-64.6 64.6-64.6 35.6 0 64.6 29 64.6 64.6s-29 64.6-64.6 64.6c-35.6 0-64.6-29-64.6-64.6z"/></g></svg>