<svg version="1.1" id="Capa_1" xmlns="http://www.w3.org/2000/svg" x="0" y="0" viewBox="0 0 58 58" xml:space="preserve"><style>.st1{fill:red}</style><g opacity=".39"><path class="st1" d="M51 12.2l-.8-.8L40.1 1.3l-.8-.8C39 .2 38.5 0 38 0H9C7.8 0 6.5.9 6.5 2.9V56c0 .8.8 1.7 1.8 1.9H49.6c1-.3 1.8-1.1 1.8-1.9V14c.1-.8 0-1.4-.4-1.8zM39.5 3.6l8.4 8.4h-8.4V3.6zm10 51.9c0 .2-.1.3-.3.4H8.8c-.2-.1-.3-.2-.3-.4V41h41v14.5zm0-16.5h-41V2.9c0-.2 0-.9.5-.9h28.6c0 .1-.1.3-.1.4V14h11.6c.1 0 .3 0 .4-.1V39z"/><path class="st1" d="M18.4 50.4h1.2c.5 0 1-.1 1.4-.2.4-.2.8-.4 1.1-.7s.6-.6.7-1c.2-.4.3-.9.3-1.4 0-.5-.1-.9-.3-1.3-.2-.4-.5-.7-.8-1-.3-.3-.7-.5-1.1-.6-.4-.1-.8-.2-1.3-.2h-2.9v10h1.6v-3.6zm0-5.2h1.2c.4 0 .8.1 1 .2.3.1.5.3.6.5l.3.6c0 .2.1.4.1.6 0 .4 0 .8-.2 1-.1.3-.2.5-.4.6-.2.2-.3.3-.5.3-.2.1-.4.1-.6.1h-1.5v-3.9zM29.5 54c.3 0 .6-.1.9-.2.3-.1.6-.3 1-.5.3-.2.6-.5.9-.9.3-.4.5-.9.7-1.5.2-.6.3-1.3.3-2.1 0-.6-.1-1.2-.3-1.8-.2-.6-.5-1.1-1-1.5-.4-.4-1-.8-1.6-1.1S29 44 28.2 44h-3v10h4.3zm-2.8-1.2v-7.6h1c.8 0 1.4.1 1.9.3s.9.5 1.2.8.5.7.6 1.1c.1.4.1.8.1 1.2 0 1.3-.2 2.4-.7 3.1-.5.7-1.3 1.1-2.4 1.1h-1.7zM37.3 49.5h4.2v-1.2h-4.2v-3.1h4.6v-1.3h-6.3V54h1.7zM38.4 23c-.9 0-2 .1-3.4.4-1.8-1.9-3.7-4.8-5.1-7.6 1.3-5.6.7-6.4.4-6.8-.3-.4-.8-1-1.3-1-.2 0-.8.1-1 .2-.6.2-.9.6-1.1 1.2-.7 1.7.3 4.5 1.3 6.6-.9 3.4-2.3 7.5-3.8 10.8-3.8 1.7-5.8 3.4-6 5.1-.1.6.1 1.5 1.1 2.2.3.2.6.3 1 .3.9 0 1.8-.7 2.8-2.1.7-1 1.5-2.5 2.4-4.3 2.7-1.2 6-2.2 8.8-2.8 1.6 1.5 3 2.3 4.2 2.3.9 0 1.7-.4 2.2-1.2.6-.8.7-1.5.4-2.2-.4-.8-1.3-1.1-2.9-1.1zm-17.9 9.6c-.5-.4-.4-.6-.4-.7.1-.6.9-1.5 3.1-2.7-1.6 3-2.5 3.4-2.7 3.4zm8.2-22.9s1 1.1.1 3.2c-1.4-1.4-.2-3.2-.1-3.2zm-2 16c1-2.4 2-5.1 2.7-7.6 1.1 2 2.5 4 3.8 5.5-2.2.6-4.4 1.3-6.5 2.1zm12.9-.4c-.3.4-1 .4-1.2.4-.5 0-.7-.3-1.5-.9.7-.1 1.3-.1 1.8-.1.9 0 1.1.1 1.2.2-.1 0-.2.1-.3.4z"/></g></svg>