<svg version="1.1" id="Layer_1" xmlns="http://www.w3.org/2000/svg" x="0" y="0" viewBox="0 0 512 512" xml:space="preserve"><style>.st1{fill:red}</style><g opacity=".39"><path class="st1" d="M336 160c-97 0-176 79-176 176 0 59.5 29.6 112.1 74.9 144H48c-8.8 0-16-7.2-16-16v-32c0-8.8 7.2-16 16-16h80c8.8 0 16-7.2 16-16s-7.2-16-16-16H96c-8.8 0-16-7.2-16-16v-32c0-8.8 7.2-16 16-16h32c8.8 0 16-7.2 16-16s-7.2-16-16-16H64c-8.8 0-16-7.2-16-16v-32c0-8.8 7.2-16 16-16h96c8.8 0 16-7.2 16-16s-7.2-16-16-16H96c-8.8 0-16-7.2-16-16v-32c0-8.8 7.2-16 16-16h176c26.5 0 48-21.5 48-48V48c0-26.5-21.5-48-48-48H48C21.5 0 0 21.5 0 48v32c0 24.3 18.5 48 50.8 48-1.8 5-2.8 10.4-2.8 16 0 33.8-.9 38.9 3.4 49.7C31 199.2 16 217.9 16 240v32c0 22.1 15 40.8 35.4 46.3-2.2 5.5-3.4 11.4-3.4 17.7 0 33.1-.8 37.8 2.8 48C18.3 384 0 407.9 0 432v32c0 26.5 21.5 48 48 48h288c97 0 176-79 176-176s-79-176-176-176zM48 96c-8.8 0-16-7.2-16-16V48c0-8.8 7.2-16 16-16h224c8.8 0 16 7.2 16 16v32c0 8.8-7.2 16-16 16H48zm288 384c-79.4 0-144-64.6-144-144s64.6-144 144-144 144 64.6 144 144-64.6 144-144 144z"/><path class="st1" d="M344 240h-56c-8.8 0-16 7.2-16 16v160c0 8.8 7.2 16 16 16s16-7.2 16-16v-16h32c8.8 0 16-7.2 16-16s-7.2-16-16-16h-32v-16h40c30.9 0 56-25.1 56-56s-25.1-56-56-56zm0 80h-40v-48h40c13.2 0 24 10.8 24 24s-10.8 24-24 24z"/></g></svg>