<svg version="1.1" id="Capa_1" xmlns="http://www.w3.org/2000/svg" x="0" y="0" viewBox="0 0 52.5 52.5" xml:space="preserve"><style>.st0{fill:#fff}</style><path class="st0" d="M31.3 0h-10c-10.5 0-19 8.5-19 19v9c0 7.8 4.8 14.8 12 17.7v5.8c0 .4.2.8.6.9.1.1.3.1.4.1.2 0 .5-.1.7-.3l5.8-5.3h9.5c10.5 0 19-8.5 19-19v-9C50.3 8.5 41.7 0 31.3 0zm17 28c0 9.4-7.6 17-17 17h-9.9c-.2 0-.5.1-.7.3l-4.4 4V45c0-.4-.3-.8-.7-.9C8.8 41.6 4.3 35.2 4.3 28v-9c0-9.4 7.6-17 17-17h10c9.4 0 17 7.6 17 17v9z"/><path class="st0" d="M39.5 30.5l-6.1-4c-.7-.4-1.5-.6-2.3-.4-.8.2-1.5.6-1.9 1.3l-.3.4c-2.7-.9-5.6-2-7.3-7.1l.7-.6c1.2-1.1 1.4-3 .3-4.2l-4.8-5.5c-.4-.4-1-.5-1.4-.1l-3 2.6c-2.6 2.3-1.4 5.7-1 6.8 0 0 0 .1.1.1.1.2 2.6 4.7 6.7 8.8 4.1 4.1 11.4 8 11.6 8.1.8.5 1.8.8 2.7.8 1.6 0 3.2-.8 4.2-2.3l2.2-3.4c.2-.4 0-1-.4-1.3zm-3.6 3.6c-.9 1.4-2.8 1.8-4.2.8-.1 0-7.4-3.8-11.2-7.7-3.6-3.7-6-7.7-6.3-8.3-.8-2.2-.7-3.6.5-4.6l2.3-2 4.2 4.8c.4.4.3 1-.1 1.4l-1.2 1.1c-.3.3-.4.7-.3 1 2.1 6.8 6.2 8.1 9.1 9.1l.3.3c.4.1.9 0 1.2-.4l.7-1.1c.1-.2.4-.4.6-.4.3-.1.5 0 .8.1l5.3 3.4-1.7 2.5zM28.5 16.2c-.5-.2-1.1.2-1.2.7-.2.5.2 1.1.7 1.2 1.5.4 2.7 1.6 3.1 3.1.1.4.5.7 1 .7h.3c.5-.1.8-.7.7-1.2-.7-2.1-2.4-3.8-4.6-4.5z"/><path class="st0" d="M36.1 22.2h.3c.5-.1.8-.7.7-1.2-1.2-4.2-4.5-7.5-8.7-8.7-.5-.2-1.1.2-1.2.7-.2.5.2 1.1.7 1.2 3.5 1 6.3 3.8 7.3 7.3.1.4.5.7.9.7z"/><path class="st0" d="M28 7.6c-.5-.2-1.1.2-1.2.7-.2.5.2 1.1.7 1.2 6 1.7 10.7 6.5 12.4 12.4.1.4.5.7 1 .7h.3c.5-.1.8-.7.7-1.2-2-6.6-7.3-11.9-13.9-13.8z"/></svg>