<svg version="1.1" id="Слой_1" xmlns="http://www.w3.org/2000/svg" x="0" y="0" viewBox="0 0 512 512" xml:space="preserve"><style>.st0{fill:#aeaeae}</style><path class="st0" d="M439.3 72.7C392.4 25.8 330 0 263.7 0c-32.8 0-64.8 6.4-95 18.9-30.2 12.5-57.3 30.6-80.5 53.8-47 46.9-72.8 109.3-72.8 175.6 0 39.6 9.5 78.9 27.6 113.9L1.3 481.4c-2.9 8.4-.9 17.6 5.4 23.9 4.4 4.4 10.2 6.8 16.2 6.8 2.6 0 5.1-.4 7.7-1.3L149.8 469c35 18.1 74.3 27.6 113.9 27.6 66.3 0 128.7-25.8 175.6-72.7C486.2 377 512 314.6 512 248.3s-25.8-128.7-72.7-175.6zM418 402.6c-41.2 41.2-96 63.9-154.3 63.9-35.7 0-71.1-8.8-102.5-25.5-5.7-3-12.4-3.5-18.4-1.4L34.5 477.5l37.9-108.3c2.1-6 1.6-12.8-1.4-18.4-16.7-31.4-25.6-66.8-25.6-102.5 0-58.3 22.7-113.1 63.9-154.3 41.2-41.2 96-63.9 154.3-63.9C322 30 376.8 52.7 418 94c41.2 41.2 63.9 96 63.9 154.3S459.3 361.4 418 402.6z"/><path class="st0" d="M356 270.5c-11.4-11.4-30-11.4-41.4 0L302.1 283c-31-16.9-56.1-42-73-73l12.5-12.5c11.4-11.4 11.4-30 0-41.4l-33.7-33.7c-11.4-11.4-30-11.4-41.4 0l-26.9 26.9c-15.4 15.4-16.2 41.9-2.2 74.7 12.2 28.4 34.5 59.7 62.8 87.9s59.5 50.6 87.9 62.8c15.6 6.7 29.7 10 41.9 10 13.5 0 24.7-4.1 32.8-12.2l26.9-26.9c5.5-5.5 8.6-12.9 8.6-20.7 0-7.8-3-15.2-8.6-20.7L356 270.5zm-14.5 80.8c-4.4 4.4-17.9 5.9-41.6-4.2-25-10.7-52.9-30.7-78.5-56.4s-45.7-53.5-56.4-78.5c-10.1-23.7-8.6-37.2-4.2-41.6l26.4-26.4 32.6 32.6-15.6 15.6c-7.1 7.1-8.8 17.8-4.2 26.7 20.6 40.3 52.7 72.5 93 93 8.9 4.5 19.6 2.8 26.7-4.2l15.6-15.6 32.6 32.6-26.4 26.4z"/></svg>