<svg version="1.1" id="Слой_1" xmlns="http://www.w3.org/2000/svg" x="0" y="0" viewBox="0 0 496 496" xml:space="preserve"><style>.st0{opacity:.39;fill:red}</style><path class="st0" d="M120 320c-39.7 0-72 32.3-72 72s32.3 72 72 72 72-32.3 72-72-32.3-72-72-72zm0 128c-30.9 0-56-25.1-56-56s25.1-56 56-56 56 25.1 56 56-25.1 56-56 56z"/><path class="st0" d="M488 416h-32c-4.4 0-8 3.6-8 8v24H288v-40c0-4.4-3.6-8-8-8h-40.3c-3-45.6-31.7-84.3-71.7-101.9V264c0-4.4-3.6-8-8-8h-8v-24c0-4.4-3.6-8-8-8H96c-4.4 0-8 3.6-8 8v24h-8c-4.4 0-8 3.6-8 8v34.1C29.7 316.6 0 358.9 0 408v80c0 4.4 3.6 8 8 8h480c4.4 0 8-3.6 8-8v-64c0-4.4-3.6-8-8-8zM104 240h32v16h-32v-16zm-16 32h64v20.4c-10.2-2.8-20.9-4.4-32-4.4-11.1 0-21.8 1.6-32 4.5V272zM16 408c0-57.3 46.7-104 104-104s104 46.7 104 104c0 4.4 3.6 8 8 8h40v64H16v-72zm272 56h160v16H288v-16zm192 16h-16v-48h16v48zM376 208c.8 0 1.7-.1 2.5-.4l46.8-15.6H440c13.2 0 24-10.8 24-24s-10.8-24-24-24h-14.7l-46.8-15.6c-.3-.1-.6 0-.9-.1-.6-.1-1.1-.3-1.7-.3H40c-22.1 0-40 17.9-40 40s17.9 40 40 40h336zm72-40c0 4.4-3.6 8-8 8h-8v-16h8c4.4 0 8 3.6 8 8zm-32 10.2l-32 10.7v-41.8l32 10.7v20.4zM16 168c0-13.2 10.8-24 24-24h328v48H40c-13.2 0-24-10.8-24-24zM488 0H8C3.6 0 0 3.6 0 8v96c0 4.4 3.6 8 8 8h480c4.4 0 8-3.6 8-8V8c0-4.4-3.6-8-8-8zm-8 96H16V16h16v48h16V16h16v32h16V16h16v32h16V16h16v32h16V16h16v32h16V16h16v48h16V16h16v32h16V16h16v32h16V16h16v32h16V16h16v32h16V16h16v48h16V16h16v32h16V16h16v32h16V16h16v32h16V16h16v80z"/></svg>